<?xml version="1.0" encoding="utf-8" standalone="no"?>
<!DOCTYPE svg PUBLIC "-//W3C//DTD SVG 1.1//EN"
  "http://www.w3.org/Graphics/SVG/1.1/DTD/svg11.dtd">
<!-- Created with matplotlib (https://matplotlib.org/) -->
<svg height="217.514375pt" version="1.1" viewBox="0 0 247.438097 217.514375" width="247.438097pt" xmlns="http://www.w3.org/2000/svg" xmlns:xlink="http://www.w3.org/1999/xlink">
 <defs>
  <style type="text/css">
*{stroke-linecap:butt;stroke-linejoin:round;}
  </style>
 </defs>
 <g id="figure_1">
  <g id="patch_1">
   <path d="M 0 217.514375 
L 247.438097 217.514375 
L 247.438097 0 
L 0 0 
z
" style="fill:#ffffff;"/>
  </g>
  <g id="axes_1">
   <g id="patch_2">
    <path d="M 69.315 170.28 
L 236.715 170.28 
L 236.715 7.2 
L 69.315 7.2 
z
" style="fill:#ffffff;"/>
   </g>
   <g id="PolyCollection_1">
    <path clip-path="url(#p62683a04bb)" d="M 76.924091 161.6991 
L 76.924091 170.28 
L 78.445909 170.28 
L 78.445909 161.6991 
L 78.445909 161.6991 
L 76.924091 161.6991 
z
" style="fill:#666666;fill-opacity:0.005;"/>
   </g>
   <g id="PolyCollection_2">
    <path clip-path="url(#p62683a04bb)" d="M 78.445909 142.275064 
L 78.445909 170.28 
L 79.967727 170.28 
L 79.967727 142.275064 
L 79.967727 142.275064 
L 78.445909 142.275064 
z
" style="fill:#666666;fill-opacity:0.015;"/>
   </g>
   <g id="PolyCollection_3">
    <path clip-path="url(#p62683a04bb)" d="M 79.967727 128.70164 
L 79.967727 170.28 
L 81.489545 170.28 
L 81.489545 128.70164 
L 81.489545 128.70164 
L 79.967727 128.70164 
z
" style="fill:#666666;fill-opacity:0.025;"/>
   </g>
   <g id="PolyCollection_4">
    <path clip-path="url(#p62683a04bb)" d="M 81.489545 111.1498 
L 81.489545 170.28 
L 83.011364 170.28 
L 83.011364 111.1498 
L 83.011364 111.1498 
L 81.489545 111.1498 
z
" style="fill:#666666;fill-opacity:0.035;"/>
   </g>
   <g id="PolyCollection_5">
    <path clip-path="url(#p62683a04bb)" d="M 83.011364 103.036949 
L 83.011364 170.28 
L 84.533182 170.28 
L 84.533182 103.036949 
L 84.533182 103.036949 
L 83.011364 103.036949 
z
" style="fill:#666666;fill-opacity:0.045;"/>
   </g>
   <g id="PolyCollection_6">
    <path clip-path="url(#p62683a04bb)" d="M 84.533182 85.87515 
L 84.533182 170.28 
L 86.055 170.28 
L 86.055 85.87515 
L 86.055 85.87515 
L 84.533182 85.87515 
z
" style="fill:#666666;fill-opacity:0.055;"/>
   </g>
   <g id="PolyCollection_7">
    <path clip-path="url(#p62683a04bb)" d="M 86.055 78.932422 
L 86.055 170.28 
L 87.576818 170.28 
L 87.576818 78.932422 
L 87.576818 78.932422 
L 86.055 78.932422 
z
" style="fill:#666666;fill-opacity:0.065;"/>
   </g>
   <g id="PolyCollection_8">
    <path clip-path="url(#p62683a04bb)" d="M 87.576818 68.635342 
L 87.576818 170.28 
L 89.098636 170.28 
L 89.098636 68.635342 
L 89.098636 68.635342 
L 87.576818 68.635342 
z
" style="fill:#666666;fill-opacity:0.075;"/>
   </g>
   <g id="PolyCollection_9">
    <path clip-path="url(#p62683a04bb)" d="M 89.098636 58.104238 
L 89.098636 170.28 
L 90.620455 170.28 
L 90.620455 58.104238 
L 90.620455 58.104238 
L 89.098636 58.104238 
z
" style="fill:#666666;fill-opacity:0.085;"/>
   </g>
   <g id="PolyCollection_10">
    <path clip-path="url(#p62683a04bb)" d="M 90.620455 48.821264 
L 90.620455 170.28 
L 92.142273 170.28 
L 92.142273 48.821264 
L 92.142273 48.821264 
L 90.620455 48.821264 
z
" style="fill:#666666;fill-opacity:0.095;"/>
   </g>
   <g id="PolyCollection_11">
    <path clip-path="url(#p62683a04bb)" d="M 92.142273 43.906749 
L 92.142273 170.28 
L 93.664091 170.28 
L 93.664091 43.906749 
L 93.664091 43.906749 
L 92.142273 43.906749 
z
" style="fill:#666666;fill-opacity:0.105;"/>
   </g>
   <g id="PolyCollection_12">
    <path clip-path="url(#p62683a04bb)" d="M 93.664091 40.240364 
L 93.664091 170.28 
L 95.185909 170.28 
L 95.185909 40.240364 
L 95.185909 40.240364 
L 93.664091 40.240364 
z
" style="fill:#666666;fill-opacity:0.115;"/>
   </g>
   <g id="PolyCollection_13">
    <path clip-path="url(#p62683a04bb)" d="M 95.185909 27.291007 
L 95.185909 170.28 
L 96.707727 170.28 
L 96.707727 27.291007 
L 96.707727 27.291007 
L 95.185909 27.291007 
z
" style="fill:#666666;fill-opacity:0.125;"/>
   </g>
   <g id="PolyCollection_14">
    <path clip-path="url(#p62683a04bb)" d="M 96.707727 26.198892 
L 96.707727 170.28 
L 98.229545 170.28 
L 98.229545 26.198892 
L 98.229545 26.198892 
L 96.707727 26.198892 
z
" style="fill:#666666;fill-opacity:0.135;"/>
   </g>
   <g id="PolyCollection_15">
    <path clip-path="url(#p62683a04bb)" d="M 98.229545 22.064459 
L 98.229545 170.28 
L 99.751364 170.28 
L 99.751364 22.064459 
L 99.751364 22.064459 
L 98.229545 22.064459 
z
" style="fill:#666666;fill-opacity:0.145;"/>
   </g>
   <g id="PolyCollection_16">
    <path clip-path="url(#p62683a04bb)" d="M 99.751364 28.85117 
L 99.751364 170.28 
L 101.273182 170.28 
L 101.273182 28.85117 
L 101.273182 28.85117 
L 99.751364 28.85117 
z
" style="fill:#666666;fill-opacity:0.155;"/>
   </g>
   <g id="PolyCollection_17">
    <path clip-path="url(#p62683a04bb)" d="M 101.273182 25.886859 
L 101.273182 170.28 
L 102.795 170.28 
L 102.795 25.886859 
L 102.795 25.886859 
L 101.273182 25.886859 
z
" style="fill:#666666;fill-opacity:0.165;"/>
   </g>
   <g id="PolyCollection_18">
    <path clip-path="url(#p62683a04bb)" d="M 102.795 16.057829 
L 102.795 170.28 
L 104.316818 170.28 
L 104.316818 16.057829 
L 104.316818 16.057829 
L 102.795 16.057829 
z
" style="fill:#666666;fill-opacity:0.175;"/>
   </g>
   <g id="PolyCollection_19">
    <path clip-path="url(#p62683a04bb)" d="M 104.316818 18.554091 
L 104.316818 170.28 
L 105.838636 170.28 
L 105.838636 18.554091 
L 105.838636 18.554091 
L 104.316818 18.554091 
z
" style="fill:#666666;fill-opacity:0.185;"/>
   </g>
   <g id="PolyCollection_20">
    <path clip-path="url(#p62683a04bb)" d="M 105.838636 14.965714 
L 105.838636 170.28 
L 107.360455 170.28 
L 107.360455 14.965714 
L 107.360455 14.965714 
L 105.838636 14.965714 
z
" style="fill:#666666;fill-opacity:0.195;"/>
   </g>
   <g id="PolyCollection_21">
    <path clip-path="url(#p62683a04bb)" d="M 107.360455 18.788115 
L 107.360455 170.28 
L 108.882273 170.28 
L 108.882273 18.788115 
L 108.882273 18.788115 
L 107.360455 18.788115 
z
" style="fill:#666666;fill-opacity:0.205;"/>
   </g>
   <g id="PolyCollection_22">
    <path clip-path="url(#p62683a04bb)" d="M 108.882273 16.135837 
L 108.882273 170.28 
L 110.404091 170.28 
L 110.404091 16.135837 
L 110.404091 16.135837 
L 108.882273 16.135837 
z
" style="fill:#666666;fill-opacity:0.215;"/>
   </g>
   <g id="PolyCollection_23">
    <path clip-path="url(#p62683a04bb)" d="M 110.404091 22.84454 
L 110.404091 170.28 
L 111.925909 170.28 
L 111.925909 22.84454 
L 111.925909 22.84454 
L 110.404091 22.84454 
z
" style="fill:#666666;fill-opacity:0.225;"/>
   </g>
   <g id="PolyCollection_24">
    <path clip-path="url(#p62683a04bb)" d="M 111.925909 16.291853 
L 111.925909 170.28 
L 113.447727 170.28 
L 113.447727 16.291853 
L 113.447727 16.291853 
L 111.925909 16.291853 
z
" style="fill:#666666;fill-opacity:0.235;"/>
   </g>
   <g id="PolyCollection_25">
    <path clip-path="url(#p62683a04bb)" d="M 113.447727 19.646205 
L 113.447727 170.28 
L 114.969545 170.28 
L 114.969545 19.646205 
L 114.969545 19.646205 
L 113.447727 19.646205 
z
" style="fill:#666666;fill-opacity:0.245;"/>
   </g>
   <g id="PolyCollection_26">
    <path clip-path="url(#p62683a04bb)" d="M 114.969545 23.546614 
L 114.969545 170.28 
L 116.491364 170.28 
L 116.491364 23.546614 
L 116.491364 23.546614 
L 114.969545 23.546614 
z
" style="fill:#666666;fill-opacity:0.255;"/>
   </g>
   <g id="PolyCollection_27">
    <path clip-path="url(#p62683a04bb)" d="M 116.491364 18.944131 
L 116.491364 170.28 
L 118.013182 170.28 
L 118.013182 18.944131 
L 118.013182 18.944131 
L 116.491364 18.944131 
z
" style="fill:#666666;fill-opacity:0.265;"/>
   </g>
   <g id="PolyCollection_28">
    <path clip-path="url(#p62683a04bb)" d="M 118.013182 32.439547 
L 118.013182 170.28 
L 119.535 170.28 
L 119.535 32.439547 
L 119.535 32.439547 
L 118.013182 32.439547 
z
" style="fill:#666666;fill-opacity:0.275;"/>
   </g>
   <g id="PolyCollection_29">
    <path clip-path="url(#p62683a04bb)" d="M 119.535 28.617146 
L 119.535 170.28 
L 121.056818 170.28 
L 121.056818 28.617146 
L 121.056818 28.617146 
L 119.535 28.617146 
z
" style="fill:#666666;fill-opacity:0.285;"/>
   </g>
   <g id="PolyCollection_30">
    <path clip-path="url(#p62683a04bb)" d="M 121.056818 33.14162 
L 121.056818 170.28 
L 122.578636 170.28 
L 122.578636 33.14162 
L 122.578636 33.14162 
L 121.056818 33.14162 
z
" style="fill:#666666;fill-opacity:0.295;"/>
   </g>
   <g id="PolyCollection_31">
    <path clip-path="url(#p62683a04bb)" d="M 122.578636 36.027923 
L 122.578636 170.28 
L 124.100455 170.28 
L 124.100455 36.027923 
L 124.100455 36.027923 
L 122.578636 36.027923 
z
" style="fill:#666666;fill-opacity:0.305;"/>
   </g>
   <g id="PolyCollection_32">
    <path clip-path="url(#p62683a04bb)" d="M 124.100455 36.808005 
L 124.100455 170.28 
L 125.622273 170.28 
L 125.622273 36.808005 
L 125.622273 36.808005 
L 124.100455 36.808005 
z
" style="fill:#666666;fill-opacity:0.315;"/>
   </g>
   <g id="PolyCollection_33">
    <path clip-path="url(#p62683a04bb)" d="M 125.622273 43.204675 
L 125.622273 170.28 
L 127.144091 170.28 
L 127.144091 43.204675 
L 127.144091 43.204675 
L 125.622273 43.204675 
z
" style="fill:#666666;fill-opacity:0.325;"/>
   </g>
   <g id="PolyCollection_34">
    <path clip-path="url(#p62683a04bb)" d="M 127.144091 45.232888 
L 127.144091 170.28 
L 128.665909 170.28 
L 128.665909 45.232888 
L 128.665909 45.232888 
L 127.144091 45.232888 
z
" style="fill:#666666;fill-opacity:0.335;"/>
   </g>
   <g id="PolyCollection_35">
    <path clip-path="url(#p62683a04bb)" d="M 128.665909 46.01297 
L 128.665909 170.28 
L 130.187727 170.28 
L 130.187727 46.01297 
L 130.187727 46.01297 
L 128.665909 46.01297 
z
" style="fill:#666666;fill-opacity:0.345;"/>
   </g>
   <g id="PolyCollection_36">
    <path clip-path="url(#p62683a04bb)" d="M 130.187727 51.083501 
L 130.187727 170.28 
L 131.709545 170.28 
L 131.709545 51.083501 
L 131.709545 51.083501 
L 130.187727 51.083501 
z
" style="fill:#666666;fill-opacity:0.355;"/>
   </g>
   <g id="PolyCollection_37">
    <path clip-path="url(#p62683a04bb)" d="M 131.709545 60.912532 
L 131.709545 170.28 
L 133.231364 170.28 
L 133.231364 60.912532 
L 133.231364 60.912532 
L 131.709545 60.912532 
z
" style="fill:#666666;fill-opacity:0.365;"/>
   </g>
   <g id="PolyCollection_38">
    <path clip-path="url(#p62683a04bb)" d="M 133.231364 63.876843 
L 133.231364 170.28 
L 134.753182 170.28 
L 134.753182 63.876843 
L 134.753182 63.876843 
L 133.231364 63.876843 
z
" style="fill:#666666;fill-opacity:0.375;"/>
   </g>
   <g id="PolyCollection_39">
    <path clip-path="url(#p62683a04bb)" d="M 134.753182 64.266884 
L 134.753182 170.28 
L 136.275 170.28 
L 136.275 64.266884 
L 136.275 64.266884 
L 134.753182 64.266884 
z
" style="fill:#666666;fill-opacity:0.385;"/>
   </g>
   <g id="PolyCollection_40">
    <path clip-path="url(#p62683a04bb)" d="M 136.275 71.521645 
L 136.275 170.28 
L 137.796818 170.28 
L 137.796818 71.521645 
L 137.796818 71.521645 
L 136.275 71.521645 
z
" style="fill:#666666;fill-opacity:0.395;"/>
   </g>
   <g id="PolyCollection_41">
    <path clip-path="url(#p62683a04bb)" d="M 137.796818 79.790512 
L 137.796818 170.28 
L 139.318636 170.28 
L 139.318636 79.790512 
L 139.318636 79.790512 
L 137.796818 79.790512 
z
" style="fill:#666666;fill-opacity:0.405;"/>
   </g>
   <g id="PolyCollection_42">
    <path clip-path="url(#p62683a04bb)" d="M 139.318636 79.790512 
L 139.318636 170.28 
L 140.840455 170.28 
L 140.840455 79.790512 
L 140.840455 79.790512 
L 139.318636 79.790512 
z
" style="fill:#666666;fill-opacity:0.415;"/>
   </g>
   <g id="PolyCollection_43">
    <path clip-path="url(#p62683a04bb)" d="M 140.840455 85.485109 
L 140.840455 170.28 
L 142.362273 170.28 
L 142.362273 85.485109 
L 142.362273 85.485109 
L 140.840455 85.485109 
z
" style="fill:#666666;fill-opacity:0.425;"/>
   </g>
   <g id="PolyCollection_44">
    <path clip-path="url(#p62683a04bb)" d="M 142.362273 90.55564 
L 142.362273 170.28 
L 143.884091 170.28 
L 143.884091 90.55564 
L 143.884091 90.55564 
L 142.362273 90.55564 
z
" style="fill:#666666;fill-opacity:0.435;"/>
   </g>
   <g id="PolyCollection_45">
    <path clip-path="url(#p62683a04bb)" d="M 143.884091 96.718287 
L 143.884091 170.28 
L 145.405909 170.28 
L 145.405909 96.718287 
L 145.405909 96.718287 
L 143.884091 96.718287 
z
" style="fill:#666666;fill-opacity:0.445;"/>
   </g>
   <g id="PolyCollection_46">
    <path clip-path="url(#p62683a04bb)" d="M 145.405909 94.456049 
L 145.405909 170.28 
L 146.927727 170.28 
L 146.927727 94.456049 
L 146.927727 94.456049 
L 145.405909 94.456049 
z
" style="fill:#666666;fill-opacity:0.455;"/>
   </g>
   <g id="PolyCollection_47">
    <path clip-path="url(#p62683a04bb)" d="M 146.927727 97.42036 
L 146.927727 170.28 
L 148.449545 170.28 
L 148.449545 97.42036 
L 148.449545 97.42036 
L 146.927727 97.42036 
z
" style="fill:#666666;fill-opacity:0.465;"/>
   </g>
   <g id="PolyCollection_48">
    <path clip-path="url(#p62683a04bb)" d="M 148.449545 103.661015 
L 148.449545 170.28 
L 149.971364 170.28 
L 149.971364 103.661015 
L 149.971364 103.661015 
L 148.449545 103.661015 
z
" style="fill:#666666;fill-opacity:0.475;"/>
   </g>
   <g id="PolyCollection_49">
    <path clip-path="url(#p62683a04bb)" d="M 149.971364 105.221178 
L 149.971364 170.28 
L 151.493182 170.28 
L 151.493182 105.221178 
L 151.493182 105.221178 
L 149.971364 105.221178 
z
" style="fill:#666666;fill-opacity:0.485;"/>
   </g>
   <g id="PolyCollection_50">
    <path clip-path="url(#p62683a04bb)" d="M 151.493182 103.661015 
L 151.493182 170.28 
L 153.015 170.28 
L 153.015 103.661015 
L 153.015 103.661015 
L 151.493182 103.661015 
z
" style="fill:#666666;fill-opacity:0.495;"/>
   </g>
   <g id="PolyCollection_51">
    <path clip-path="url(#p62683a04bb)" d="M 153.015 112.553947 
L 153.015 170.28 
L 154.536818 170.28 
L 154.536818 112.553947 
L 154.536818 112.553947 
L 153.015 112.553947 
z
" style="fill:#666666;fill-opacity:0.505;"/>
   </g>
   <g id="PolyCollection_52">
    <path clip-path="url(#p62683a04bb)" d="M 154.536818 115.128217 
L 154.536818 170.28 
L 156.058636 170.28 
L 156.058636 115.128217 
L 156.058636 115.128217 
L 154.536818 115.128217 
z
" style="fill:#666666;fill-opacity:0.515;"/>
   </g>
   <g id="PolyCollection_53">
    <path clip-path="url(#p62683a04bb)" d="M 156.058636 114.426143 
L 156.058636 170.28 
L 157.580455 170.28 
L 157.580455 114.426143 
L 157.580455 114.426143 
L 156.058636 114.426143 
z
" style="fill:#666666;fill-opacity:0.525;"/>
   </g>
   <g id="PolyCollection_54">
    <path clip-path="url(#p62683a04bb)" d="M 157.580455 121.290863 
L 157.580455 170.28 
L 159.102273 170.28 
L 159.102273 121.290863 
L 159.102273 121.290863 
L 157.580455 121.290863 
z
" style="fill:#666666;fill-opacity:0.535;"/>
   </g>
   <g id="PolyCollection_55">
    <path clip-path="url(#p62683a04bb)" d="M 159.102273 122.538994 
L 159.102273 170.28 
L 160.624091 170.28 
L 160.624091 122.538994 
L 160.624091 122.538994 
L 159.102273 122.538994 
z
" style="fill:#666666;fill-opacity:0.545;"/>
   </g>
   <g id="PolyCollection_56">
    <path clip-path="url(#p62683a04bb)" d="M 160.624091 128.779648 
L 160.624091 170.28 
L 162.145909 170.28 
L 162.145909 128.779648 
L 162.145909 128.779648 
L 160.624091 128.779648 
z
" style="fill:#666666;fill-opacity:0.555;"/>
   </g>
   <g id="PolyCollection_57">
    <path clip-path="url(#p62683a04bb)" d="M 162.145909 131.197902 
L 162.145909 170.28 
L 163.667727 170.28 
L 163.667727 131.197902 
L 163.667727 131.197902 
L 162.145909 131.197902 
z
" style="fill:#666666;fill-opacity:0.565;"/>
   </g>
   <g id="PolyCollection_58">
    <path clip-path="url(#p62683a04bb)" d="M 163.667727 129.793755 
L 163.667727 170.28 
L 165.189545 170.28 
L 165.189545 129.793755 
L 165.189545 129.793755 
L 163.667727 129.793755 
z
" style="fill:#666666;fill-opacity:0.575;"/>
   </g>
   <g id="PolyCollection_59">
    <path clip-path="url(#p62683a04bb)" d="M 165.189545 132.914082 
L 165.189545 170.28 
L 166.711364 170.28 
L 166.711364 132.914082 
L 166.711364 132.914082 
L 165.189545 132.914082 
z
" style="fill:#666666;fill-opacity:0.585;"/>
   </g>
   <g id="PolyCollection_60">
    <path clip-path="url(#p62683a04bb)" d="M 166.711364 131.27591 
L 166.711364 170.28 
L 168.233182 170.28 
L 168.233182 131.27591 
L 168.233182 131.27591 
L 166.711364 131.27591 
z
" style="fill:#666666;fill-opacity:0.595;"/>
   </g>
   <g id="PolyCollection_61">
    <path clip-path="url(#p62683a04bb)" d="M 168.233182 135.488352 
L 168.233182 170.28 
L 169.755 170.28 
L 169.755 135.488352 
L 169.755 135.488352 
L 168.233182 135.488352 
z
" style="fill:#666666;fill-opacity:0.605;"/>
   </g>
   <g id="PolyCollection_62">
    <path clip-path="url(#p62683a04bb)" d="M 169.755 138.062622 
L 169.755 170.28 
L 171.276818 170.28 
L 171.276818 138.062622 
L 171.276818 138.062622 
L 169.755 138.062622 
z
" style="fill:#666666;fill-opacity:0.615;"/>
   </g>
   <g id="PolyCollection_63">
    <path clip-path="url(#p62683a04bb)" d="M 171.276818 140.558884 
L 171.276818 170.28 
L 172.798636 170.28 
L 172.798636 140.558884 
L 172.798636 140.558884 
L 171.276818 140.558884 
z
" style="fill:#666666;fill-opacity:0.625;"/>
   </g>
   <g id="PolyCollection_64">
    <path clip-path="url(#p62683a04bb)" d="M 172.798636 139.232744 
L 172.798636 170.28 
L 174.320455 170.28 
L 174.320455 139.232744 
L 174.320455 139.232744 
L 172.798636 139.232744 
z
" style="fill:#666666;fill-opacity:0.635;"/>
   </g>
   <g id="PolyCollection_65">
    <path clip-path="url(#p62683a04bb)" d="M 174.320455 138.296646 
L 174.320455 170.28 
L 175.842273 170.28 
L 175.842273 138.296646 
L 175.842273 138.296646 
L 174.320455 138.296646 
z
" style="fill:#666666;fill-opacity:0.645;"/>
   </g>
   <g id="PolyCollection_66">
    <path clip-path="url(#p62683a04bb)" d="M 175.842273 140.870916 
L 175.842273 170.28 
L 177.364091 170.28 
L 177.364091 140.870916 
L 177.364091 140.870916 
L 175.842273 140.870916 
z
" style="fill:#666666;fill-opacity:0.655;"/>
   </g>
   <g id="PolyCollection_67">
    <path clip-path="url(#p62683a04bb)" d="M 177.364091 140.7149 
L 177.364091 170.28 
L 178.885909 170.28 
L 178.885909 140.7149 
L 178.885909 140.7149 
L 177.364091 140.7149 
z
" style="fill:#666666;fill-opacity:0.665;"/>
   </g>
   <g id="PolyCollection_68">
    <path clip-path="url(#p62683a04bb)" d="M 178.885909 140.7149 
L 178.885909 170.28 
L 180.407727 170.28 
L 180.407727 140.7149 
L 180.407727 140.7149 
L 178.885909 140.7149 
z
" style="fill:#666666;fill-opacity:0.675;"/>
   </g>
   <g id="PolyCollection_69">
    <path clip-path="url(#p62683a04bb)" d="M 180.407727 140.7149 
L 180.407727 170.28 
L 181.929545 170.28 
L 181.929545 140.7149 
L 181.929545 140.7149 
L 180.407727 140.7149 
z
" style="fill:#666666;fill-opacity:0.685;"/>
   </g>
   <g id="PolyCollection_70">
    <path clip-path="url(#p62683a04bb)" d="M 181.929545 140.324859 
L 181.929545 170.28 
L 183.451364 170.28 
L 183.451364 140.324859 
L 183.451364 140.324859 
L 181.929545 140.324859 
z
" style="fill:#666666;fill-opacity:0.695;"/>
   </g>
   <g id="PolyCollection_71">
    <path clip-path="url(#p62683a04bb)" d="M 183.451364 138.296646 
L 183.451364 170.28 
L 184.973182 170.28 
L 184.973182 138.296646 
L 184.973182 138.296646 
L 183.451364 138.296646 
z
" style="fill:#666666;fill-opacity:0.705;"/>
   </g>
   <g id="PolyCollection_72">
    <path clip-path="url(#p62683a04bb)" d="M 184.973182 137.906605 
L 184.973182 170.28 
L 186.495 170.28 
L 186.495 137.906605 
L 186.495 137.906605 
L 184.973182 137.906605 
z
" style="fill:#666666;fill-opacity:0.715;"/>
   </g>
   <g id="PolyCollection_73">
    <path clip-path="url(#p62683a04bb)" d="M 186.495 135.800385 
L 186.495 170.28 
L 188.016818 170.28 
L 188.016818 135.800385 
L 188.016818 135.800385 
L 186.495 135.800385 
z
" style="fill:#666666;fill-opacity:0.725;"/>
   </g>
   <g id="PolyCollection_74">
    <path clip-path="url(#p62683a04bb)" d="M 188.016818 136.190425 
L 188.016818 170.28 
L 189.538636 170.28 
L 189.538636 136.190425 
L 189.538636 136.190425 
L 188.016818 136.190425 
z
" style="fill:#666666;fill-opacity:0.735;"/>
   </g>
   <g id="PolyCollection_75">
    <path clip-path="url(#p62683a04bb)" d="M 189.538636 134.70827 
L 189.538636 170.28 
L 191.060455 170.28 
L 191.060455 134.70827 
L 191.060455 134.70827 
L 189.538636 134.70827 
z
" style="fill:#666666;fill-opacity:0.745;"/>
   </g>
   <g id="PolyCollection_76">
    <path clip-path="url(#p62683a04bb)" d="M 191.060455 130.573837 
L 191.060455 170.28 
L 192.582273 170.28 
L 192.582273 130.573837 
L 192.582273 130.573837 
L 191.060455 130.573837 
z
" style="fill:#666666;fill-opacity:0.755;"/>
   </g>
   <g id="PolyCollection_77">
    <path clip-path="url(#p62683a04bb)" d="M 192.582273 130.41782 
L 192.582273 170.28 
L 194.104091 170.28 
L 194.104091 130.41782 
L 194.104091 130.41782 
L 192.582273 130.41782 
z
" style="fill:#666666;fill-opacity:0.765;"/>
   </g>
   <g id="PolyCollection_78">
    <path clip-path="url(#p62683a04bb)" d="M 194.104091 128.70164 
L 194.104091 170.28 
L 195.625909 170.28 
L 195.625909 128.70164 
L 195.625909 128.70164 
L 194.104091 128.70164 
z
" style="fill:#666666;fill-opacity:0.775;"/>
   </g>
   <g id="PolyCollection_79">
    <path clip-path="url(#p62683a04bb)" d="M 195.625909 125.191272 
L 195.625909 170.28 
L 197.147727 170.28 
L 197.147727 125.191272 
L 197.147727 125.191272 
L 195.625909 125.191272 
z
" style="fill:#666666;fill-opacity:0.785;"/>
   </g>
   <g id="PolyCollection_80">
    <path clip-path="url(#p62683a04bb)" d="M 197.147727 122.929035 
L 197.147727 170.28 
L 198.669545 170.28 
L 198.669545 122.929035 
L 198.669545 122.929035 
L 197.147727 122.929035 
z
" style="fill:#666666;fill-opacity:0.795;"/>
   </g>
   <g id="PolyCollection_81">
    <path clip-path="url(#p62683a04bb)" d="M 198.669545 117.702487 
L 198.669545 170.28 
L 200.191364 170.28 
L 200.191364 117.702487 
L 200.191364 117.702487 
L 198.669545 117.702487 
z
" style="fill:#666666;fill-opacity:0.805;"/>
   </g>
   <g id="PolyCollection_82">
    <path clip-path="url(#p62683a04bb)" d="M 200.191364 119.808708 
L 200.191364 170.28 
L 201.713182 170.28 
L 201.713182 119.808708 
L 201.713182 119.808708 
L 200.191364 119.808708 
z
" style="fill:#666666;fill-opacity:0.815;"/>
   </g>
   <g id="PolyCollection_83">
    <path clip-path="url(#p62683a04bb)" d="M 201.713182 116.454356 
L 201.713182 170.28 
L 203.235 170.28 
L 203.235 116.454356 
L 203.235 116.454356 
L 201.713182 116.454356 
z
" style="fill:#666666;fill-opacity:0.825;"/>
   </g>
   <g id="PolyCollection_84">
    <path clip-path="url(#p62683a04bb)" d="M 203.235 117.312446 
L 203.235 170.28 
L 204.756818 170.28 
L 204.756818 117.312446 
L 204.756818 117.312446 
L 203.235 117.312446 
z
" style="fill:#666666;fill-opacity:0.835;"/>
   </g>
   <g id="PolyCollection_85">
    <path clip-path="url(#p62683a04bb)" d="M 204.756818 108.965571 
L 204.756818 170.28 
L 206.278636 170.28 
L 206.278636 108.965571 
L 206.278636 108.965571 
L 204.756818 108.965571 
z
" style="fill:#666666;fill-opacity:0.845;"/>
   </g>
   <g id="PolyCollection_86">
    <path clip-path="url(#p62683a04bb)" d="M 206.278636 110.915775 
L 206.278636 170.28 
L 207.800455 170.28 
L 207.800455 110.915775 
L 207.800455 110.915775 
L 206.278636 110.915775 
z
" style="fill:#666666;fill-opacity:0.855;"/>
   </g>
   <g id="PolyCollection_87">
    <path clip-path="url(#p62683a04bb)" d="M 207.800455 106.703334 
L 207.800455 170.28 
L 209.322273 170.28 
L 209.322273 106.703334 
L 209.322273 106.703334 
L 207.800455 106.703334 
z
" style="fill:#666666;fill-opacity:0.865;"/>
   </g>
   <g id="PolyCollection_88">
    <path clip-path="url(#p62683a04bb)" d="M 209.322273 103.895039 
L 209.322273 170.28 
L 210.844091 170.28 
L 210.844091 103.895039 
L 210.844091 103.895039 
L 209.322273 103.895039 
z
" style="fill:#666666;fill-opacity:0.875;"/>
   </g>
   <g id="PolyCollection_89">
    <path clip-path="url(#p62683a04bb)" d="M 210.844091 105.845244 
L 210.844091 170.28 
L 212.365909 170.28 
L 212.365909 105.845244 
L 212.365909 105.845244 
L 210.844091 105.845244 
z
" style="fill:#666666;fill-opacity:0.885;"/>
   </g>
   <g id="PolyCollection_90">
    <path clip-path="url(#p62683a04bb)" d="M 212.365909 103.895039 
L 212.365909 170.28 
L 213.887727 170.28 
L 213.887727 103.895039 
L 213.887727 103.895039 
L 212.365909 103.895039 
z
" style="fill:#666666;fill-opacity:0.895;"/>
   </g>
   <g id="PolyCollection_91">
    <path clip-path="url(#p62683a04bb)" d="M 213.887727 104.207072 
L 213.887727 170.28 
L 215.409545 170.28 
L 215.409545 104.207072 
L 215.409545 104.207072 
L 213.887727 104.207072 
z
" style="fill:#666666;fill-opacity:0.905;"/>
   </g>
   <g id="PolyCollection_92">
    <path clip-path="url(#p62683a04bb)" d="M 215.409545 104.987154 
L 215.409545 170.28 
L 216.931364 170.28 
L 216.931364 104.987154 
L 216.931364 104.987154 
L 215.409545 104.987154 
z
" style="fill:#666666;fill-opacity:0.915;"/>
   </g>
   <g id="PolyCollection_93">
    <path clip-path="url(#p62683a04bb)" d="M 216.931364 101.632802 
L 216.931364 170.28 
L 218.453182 170.28 
L 218.453182 101.632802 
L 218.453182 101.632802 
L 216.931364 101.632802 
z
" style="fill:#666666;fill-opacity:0.925;"/>
   </g>
   <g id="PolyCollection_94">
    <path clip-path="url(#p62683a04bb)" d="M 218.453182 104.207072 
L 218.453182 170.28 
L 219.975 170.28 
L 219.975 104.207072 
L 219.975 104.207072 
L 218.453182 104.207072 
z
" style="fill:#666666;fill-opacity:0.935;"/>
   </g>
   <g id="PolyCollection_95">
    <path clip-path="url(#p62683a04bb)" d="M 219.975 111.929882 
L 219.975 170.28 
L 221.496818 170.28 
L 221.496818 111.929882 
L 221.496818 111.929882 
L 219.975 111.929882 
z
" style="fill:#666666;fill-opacity:0.945;"/>
   </g>
   <g id="PolyCollection_96">
    <path clip-path="url(#p62683a04bb)" d="M 221.496818 118.01452 
L 221.496818 170.28 
L 223.018636 170.28 
L 223.018636 118.01452 
L 223.018636 118.01452 
L 221.496818 118.01452 
z
" style="fill:#666666;fill-opacity:0.955;"/>
   </g>
   <g id="PolyCollection_97">
    <path clip-path="url(#p62683a04bb)" d="M 223.018636 127.921558 
L 223.018636 170.28 
L 224.540455 170.28 
L 224.540455 127.921558 
L 224.540455 127.921558 
L 223.018636 127.921558 
z
" style="fill:#666666;fill-opacity:0.965;"/>
   </g>
   <g id="PolyCollection_98">
    <path clip-path="url(#p62683a04bb)" d="M 224.540455 137.672581 
L 224.540455 170.28 
L 226.062273 170.28 
L 226.062273 137.672581 
L 226.062273 137.672581 
L 224.540455 137.672581 
z
" style="fill:#666666;fill-opacity:0.975;"/>
   </g>
   <g id="PolyCollection_99">
    <path clip-path="url(#p62683a04bb)" d="M 226.062273 149.997873 
L 226.062273 170.28 
L 227.584091 170.28 
L 227.584091 149.997873 
L 227.584091 149.997873 
L 226.062273 149.997873 
z
" style="fill:#666666;fill-opacity:0.985;"/>
   </g>
   <g id="PolyCollection_100">
    <path clip-path="url(#p62683a04bb)" d="M 227.584091 162.167149 
L 227.584091 170.28 
L 229.105909 170.28 
L 229.105909 162.167149 
L 229.105909 162.167149 
L 227.584091 162.167149 
z
" style="fill:#666666;fill-opacity:0.995;"/>
   </g>
   <g id="matplotlib.axis_1">
    <g id="xtick_1">
     <g id="line2d_1">
      <defs>
       <path d="M 0 0 
L 0 3.5 
" id="me1276a4bf9" style="stroke:#000000;stroke-width:0.8;"/>
      </defs>
      <g>
       <use style="stroke:#000000;stroke-width:0.8;" x="76.924091" xlink:href="#me1276a4bf9" y="170.28"/>
      </g>
     </g>
     <g id="text_1">
      <!-- 0.0 -->
      <defs>
       <path d="M 31.78125 66.40625 
Q 24.171875 66.40625 20.328125 58.90625 
Q 16.5 51.421875 16.5 36.375 
Q 16.5 21.390625 20.328125 13.890625 
Q 24.171875 6.390625 31.78125 6.390625 
Q 39.453125 6.390625 43.28125 13.890625 
Q 47.125 21.390625 47.125 36.375 
Q 47.125 51.421875 43.28125 58.90625 
Q 39.453125 66.40625 31.78125 66.40625 
z
M 31.78125 74.21875 
Q 44.046875 74.21875 50.515625 64.515625 
Q 56.984375 54.828125 56.984375 36.375 
Q 56.984375 17.96875 50.515625 8.265625 
Q 44.046875 -1.421875 31.78125 -1.421875 
Q 19.53125 -1.421875 13.0625 8.265625 
Q 6.59375 17.96875 6.59375 36.375 
Q 6.59375 54.828125 13.0625 64.515625 
Q 19.53125 74.21875 31.78125 74.21875 
z
" id="DejaVuSans-48"/>
       <path d="M 10.6875 12.40625 
L 21 12.40625 
L 21 0 
L 10.6875 0 
z
" id="DejaVuSans-46"/>
      </defs>
      <g transform="translate(65.791903 187.917813)scale(0.14 -0.14)">
       <use xlink:href="#DejaVuSans-48"/>
       <use x="63.623047" xlink:href="#DejaVuSans-46"/>
       <use x="95.410156" xlink:href="#DejaVuSans-48"/>
      </g>
     </g>
    </g>
    <g id="xtick_2">
     <g id="line2d_2">
      <g>
       <use style="stroke:#000000;stroke-width:0.8;" x="153.015" xlink:href="#me1276a4bf9" y="170.28"/>
      </g>
     </g>
     <g id="text_2">
      <!-- 0.5 -->
      <defs>
       <path d="M 10.796875 72.90625 
L 49.515625 72.90625 
L 49.515625 64.59375 
L 19.828125 64.59375 
L 19.828125 46.734375 
Q 21.96875 47.46875 24.109375 47.828125 
Q 26.265625 48.1875 28.421875 48.1875 
Q 40.625 48.1875 47.75 41.5 
Q 54.890625 34.8125 54.890625 23.390625 
Q 54.890625 11.625 47.5625 5.09375 
Q 40.234375 -1.421875 26.90625 -1.421875 
Q 22.3125 -1.421875 17.546875 -0.640625 
Q 12.796875 0.140625 7.71875 1.703125 
L 7.71875 11.625 
Q 12.109375 9.234375 16.796875 8.0625 
Q 21.484375 6.890625 26.703125 6.890625 
Q 35.15625 6.890625 40.078125 11.328125 
Q 45.015625 15.765625 45.015625 23.390625 
Q 45.015625 31 40.078125 35.4375 
Q 35.15625 39.890625 26.703125 39.890625 
Q 22.75 39.890625 18.8125 39.015625 
Q 14.890625 38.140625 10.796875 36.28125 
z
" id="DejaVuSans-53"/>
      </defs>
      <g transform="translate(141.882812 187.917813)scale(0.14 -0.14)">
       <use xlink:href="#DejaVuSans-48"/>
       <use x="63.623047" xlink:href="#DejaVuSans-46"/>
       <use x="95.410156" xlink:href="#DejaVuSans-53"/>
      </g>
     </g>
    </g>
    <g id="xtick_3">
     <g id="line2d_3">
      <g>
       <use style="stroke:#000000;stroke-width:0.8;" x="229.105909" xlink:href="#me1276a4bf9" y="170.28"/>
      </g>
     </g>
     <g id="text_3">
      <!-- 1.0 -->
      <defs>
       <path d="M 12.40625 8.296875 
L 28.515625 8.296875 
L 28.515625 63.921875 
L 10.984375 60.40625 
L 10.984375 69.390625 
L 28.421875 72.90625 
L 38.28125 72.90625 
L 38.28125 8.296875 
L 54.390625 8.296875 
L 54.390625 0 
L 12.40625 0 
z
" id="DejaVuSans-49"/>
      </defs>
      <g transform="translate(217.973722 187.917813)scale(0.14 -0.14)">
       <use xlink:href="#DejaVuSans-49"/>
       <use x="63.623047" xlink:href="#DejaVuSans-46"/>
       <use x="95.410156" xlink:href="#DejaVuSans-48"/>
      </g>
     </g>
    </g>
    <g id="text_4">
     <!-- $C(X)$ -->
     <defs>
      <path d="M 69.484375 67.28125 
L 67.484375 56.890625 
Q 62.796875 61.625 57.546875 63.921875 
Q 52.296875 66.21875 46.1875 66.21875 
Q 37.84375 66.21875 31.515625 62.203125 
Q 25.203125 58.203125 20.609375 50 
Q 17.671875 44.734375 16.125 38.84375 
Q 14.59375 32.953125 14.59375 27 
Q 14.59375 17.046875 19.75 11.8125 
Q 24.90625 6.59375 34.71875 6.59375 
Q 41.5 6.59375 47.75 8.765625 
Q 54 10.9375 59.90625 15.28125 
L 57.625 3.609375 
Q 51.8125 1.125 45.875 -0.140625 
Q 39.9375 -1.421875 33.984375 -1.421875 
Q 19.96875 -1.421875 12.078125 6.1875 
Q 4.203125 13.8125 4.203125 27.390625 
Q 4.203125 36.078125 7.203125 44.46875 
Q 10.203125 52.875 15.828125 59.8125 
Q 21.78125 67.1875 29.421875 70.703125 
Q 37.0625 74.21875 47.21875 74.21875 
Q 53.46875 74.21875 59.0625 72.484375 
Q 64.65625 70.75 69.484375 67.28125 
z
" id="DejaVuSans-Oblique-67"/>
      <path d="M 31 75.875 
Q 24.46875 64.65625 21.28125 53.65625 
Q 18.109375 42.671875 18.109375 31.390625 
Q 18.109375 20.125 21.3125 9.0625 
Q 24.515625 -2 31 -13.1875 
L 23.1875 -13.1875 
Q 15.875 -1.703125 12.234375 9.375 
Q 8.59375 20.453125 8.59375 31.390625 
Q 8.59375 42.28125 12.203125 53.3125 
Q 15.828125 64.359375 23.1875 75.875 
z
" id="DejaVuSans-40"/>
      <path d="M 13.71875 72.90625 
L 23.6875 72.90625 
L 36.1875 46.578125 
L 58.796875 72.90625 
L 70.3125 72.90625 
L 40.28125 38.09375 
L 58.40625 0 
L 48.484375 0 
L 33.796875 30.71875 
L 7.171875 0 
L -4.296875 0 
L 29.78125 39.203125 
z
" id="DejaVuSans-Oblique-88"/>
      <path d="M 8.015625 75.875 
L 15.828125 75.875 
Q 23.140625 64.359375 26.78125 53.3125 
Q 30.421875 42.28125 30.421875 31.390625 
Q 30.421875 20.453125 26.78125 9.375 
Q 23.140625 -1.703125 15.828125 -13.1875 
L 8.015625 -13.1875 
Q 14.5 -2 17.703125 9.0625 
Q 20.90625 20.125 20.90625 31.390625 
Q 20.90625 42.671875 17.703125 53.65625 
Q 14.5 64.65625 8.015625 75.875 
z
" id="DejaVuSans-41"/>
     </defs>
     <g transform="translate(135.655 206.986875)scale(0.16 -0.16)">
      <use transform="translate(0 0.125)" xlink:href="#DejaVuSans-Oblique-67"/>
      <use transform="translate(69.824219 0.125)" xlink:href="#DejaVuSans-40"/>
      <use transform="translate(108.837891 0.125)" xlink:href="#DejaVuSans-Oblique-88"/>
      <use transform="translate(177.34375 0.125)" xlink:href="#DejaVuSans-41"/>
     </g>
    </g>
   </g>
   <g id="matplotlib.axis_2">
    <g id="ytick_1">
     <g id="line2d_4">
      <defs>
       <path d="M 0 0 
L -3.5 0 
" id="mb2b73f8a60" style="stroke:#000000;stroke-width:0.8;"/>
      </defs>
      <g>
       <use style="stroke:#000000;stroke-width:0.8;" x="69.315" xlink:href="#mb2b73f8a60" y="170.28"/>
      </g>
     </g>
     <g id="text_5">
      <!-- 0 -->
      <g transform="translate(53.4075 175.598906)scale(0.14 -0.14)">
       <use xlink:href="#DejaVuSans-48"/>
      </g>
     </g>
    </g>
    <g id="ytick_2">
     <g id="line2d_5">
      <g>
       <use style="stroke:#000000;stroke-width:0.8;" x="69.315" xlink:href="#mb2b73f8a60" y="131.27591"/>
      </g>
     </g>
     <g id="text_6">
      <!-- 500 -->
      <g transform="translate(35.5925 136.594816)scale(0.14 -0.14)">
       <use xlink:href="#DejaVuSans-53"/>
       <use x="63.623047" xlink:href="#DejaVuSans-48"/>
       <use x="127.246094" xlink:href="#DejaVuSans-48"/>
      </g>
     </g>
    </g>
    <g id="ytick_3">
     <g id="line2d_6">
      <g>
       <use style="stroke:#000000;stroke-width:0.8;" x="69.315" xlink:href="#mb2b73f8a60" y="92.27182"/>
      </g>
     </g>
     <g id="text_7">
      <!-- 1000 -->
      <g transform="translate(26.685 97.590727)scale(0.14 -0.14)">
       <use xlink:href="#DejaVuSans-49"/>
       <use x="63.623047" xlink:href="#DejaVuSans-48"/>
       <use x="127.246094" xlink:href="#DejaVuSans-48"/>
       <use x="190.869141" xlink:href="#DejaVuSans-48"/>
      </g>
     </g>
    </g>
    <g id="ytick_4">
     <g id="line2d_7">
      <g>
       <use style="stroke:#000000;stroke-width:0.8;" x="69.315" xlink:href="#mb2b73f8a60" y="53.267731"/>
      </g>
     </g>
     <g id="text_8">
      <!-- 1500 -->
      <g transform="translate(26.685 58.586637)scale(0.14 -0.14)">
       <use xlink:href="#DejaVuSans-49"/>
       <use x="63.623047" xlink:href="#DejaVuSans-53"/>
       <use x="127.246094" xlink:href="#DejaVuSans-48"/>
       <use x="190.869141" xlink:href="#DejaVuSans-48"/>
      </g>
     </g>
    </g>
    <g id="ytick_5">
     <g id="line2d_8">
      <g>
       <use style="stroke:#000000;stroke-width:0.8;" x="69.315" xlink:href="#mb2b73f8a60" y="14.263641"/>
      </g>
     </g>
     <g id="text_9">
      <!-- 2000 -->
      <defs>
       <path d="M 19.1875 8.296875 
L 53.609375 8.296875 
L 53.609375 0 
L 7.328125 0 
L 7.328125 8.296875 
Q 12.9375 14.109375 22.625 23.890625 
Q 32.328125 33.6875 34.8125 36.53125 
Q 39.546875 41.84375 41.421875 45.53125 
Q 43.3125 49.21875 43.3125 52.78125 
Q 43.3125 58.59375 39.234375 62.25 
Q 35.15625 65.921875 28.609375 65.921875 
Q 23.96875 65.921875 18.8125 64.3125 
Q 13.671875 62.703125 7.8125 59.421875 
L 7.8125 69.390625 
Q 13.765625 71.78125 18.9375 73 
Q 24.125 74.21875 28.421875 74.21875 
Q 39.75 74.21875 46.484375 68.546875 
Q 53.21875 62.890625 53.21875 53.421875 
Q 53.21875 48.921875 51.53125 44.890625 
Q 49.859375 40.875 45.40625 35.40625 
Q 44.1875 33.984375 37.640625 27.21875 
Q 31.109375 20.453125 19.1875 8.296875 
z
" id="DejaVuSans-50"/>
      </defs>
      <g transform="translate(26.685 19.582547)scale(0.14 -0.14)">
       <use xlink:href="#DejaVuSans-50"/>
       <use x="63.623047" xlink:href="#DejaVuSans-48"/>
       <use x="127.246094" xlink:href="#DejaVuSans-48"/>
       <use x="190.869141" xlink:href="#DejaVuSans-48"/>
      </g>
     </g>
    </g>
    <g id="text_10">
     <!-- freq -->
     <defs>
      <path d="M 37.109375 75.984375 
L 37.109375 68.5 
L 28.515625 68.5 
Q 23.6875 68.5 21.796875 66.546875 
Q 19.921875 64.59375 19.921875 59.515625 
L 19.921875 54.6875 
L 34.71875 54.6875 
L 34.71875 47.703125 
L 19.921875 47.703125 
L 19.921875 0 
L 10.890625 0 
L 10.890625 47.703125 
L 2.296875 47.703125 
L 2.296875 54.6875 
L 10.890625 54.6875 
L 10.890625 58.5 
Q 10.890625 67.625 15.140625 71.796875 
Q 19.390625 75.984375 28.609375 75.984375 
z
" id="DejaVuSans-102"/>
      <path d="M 41.109375 46.296875 
Q 39.59375 47.171875 37.8125 47.578125 
Q 36.03125 48 33.890625 48 
Q 26.265625 48 22.1875 43.046875 
Q 18.109375 38.09375 18.109375 28.8125 
L 18.109375 0 
L 9.078125 0 
L 9.078125 54.6875 
L 18.109375 54.6875 
L 18.109375 46.1875 
Q 20.953125 51.171875 25.484375 53.578125 
Q 30.03125 56 36.53125 56 
Q 37.453125 56 38.578125 55.875 
Q 39.703125 55.765625 41.0625 55.515625 
z
" id="DejaVuSans-114"/>
      <path d="M 56.203125 29.59375 
L 56.203125 25.203125 
L 14.890625 25.203125 
Q 15.484375 15.921875 20.484375 11.0625 
Q 25.484375 6.203125 34.421875 6.203125 
Q 39.59375 6.203125 44.453125 7.46875 
Q 49.3125 8.734375 54.109375 11.28125 
L 54.109375 2.78125 
Q 49.265625 0.734375 44.1875 -0.34375 
Q 39.109375 -1.421875 33.890625 -1.421875 
Q 20.796875 -1.421875 13.15625 6.1875 
Q 5.515625 13.8125 5.515625 26.8125 
Q 5.515625 40.234375 12.765625 48.109375 
Q 20.015625 56 32.328125 56 
Q 43.359375 56 49.78125 48.890625 
Q 56.203125 41.796875 56.203125 29.59375 
z
M 47.21875 32.234375 
Q 47.125 39.59375 43.09375 43.984375 
Q 39.0625 48.390625 32.421875 48.390625 
Q 24.90625 48.390625 20.390625 44.140625 
Q 15.875 39.890625 15.1875 32.171875 
z
" id="DejaVuSans-101"/>
      <path d="M 14.796875 27.296875 
Q 14.796875 17.390625 18.875 11.75 
Q 22.953125 6.109375 30.078125 6.109375 
Q 37.203125 6.109375 41.296875 11.75 
Q 45.40625 17.390625 45.40625 27.296875 
Q 45.40625 37.203125 41.296875 42.84375 
Q 37.203125 48.484375 30.078125 48.484375 
Q 22.953125 48.484375 18.875 42.84375 
Q 14.796875 37.203125 14.796875 27.296875 
z
M 45.40625 8.203125 
Q 42.578125 3.328125 38.25 0.953125 
Q 33.9375 -1.421875 27.875 -1.421875 
Q 17.96875 -1.421875 11.734375 6.484375 
Q 5.515625 14.40625 5.515625 27.296875 
Q 5.515625 40.1875 11.734375 48.09375 
Q 17.96875 56 27.875 56 
Q 33.9375 56 38.25 53.625 
Q 42.578125 51.265625 45.40625 46.390625 
L 45.40625 54.6875 
L 54.390625 54.6875 
L 54.390625 -20.796875 
L 45.40625 -20.796875 
z
" id="DejaVuSans-113"/>
     </defs>
     <g transform="translate(19.3575 104.84375)rotate(-90)scale(0.16 -0.16)">
      <use xlink:href="#DejaVuSans-102"/>
      <use x="35.205078" xlink:href="#DejaVuSans-114"/>
      <use x="76.287109" xlink:href="#DejaVuSans-101"/>
      <use x="137.810547" xlink:href="#DejaVuSans-113"/>
     </g>
    </g>
   </g>
   <g id="patch_3">
    <path d="M 69.315 170.28 
L 69.315 7.2 
" style="fill:none;stroke:#000000;stroke-linecap:square;stroke-linejoin:miter;stroke-width:0.8;"/>
   </g>
   <g id="patch_4">
    <path d="M 69.315 170.28 
L 236.715 170.28 
" style="fill:none;stroke:#000000;stroke-linecap:square;stroke-linejoin:miter;stroke-width:0.8;"/>
   </g>
   <g id="line2d_9">
    <path clip-path="url(#p62683a04bb)" d="M 77.685 161.6991 
L 79.206818 142.275064 
L 80.728636 128.70164 
L 82.250455 111.1498 
L 83.772273 103.036949 
L 85.294091 85.87515 
L 86.815909 78.932422 
L 88.337727 68.635342 
L 89.859545 58.104238 
L 91.381364 48.821264 
L 92.903182 43.906749 
L 94.425 40.240364 
L 95.946818 27.291007 
L 97.468636 26.198892 
L 98.990455 22.064459 
L 100.512273 28.85117 
L 102.034091 25.886859 
L 103.555909 16.057829 
L 105.077727 18.554091 
L 106.599545 14.965714 
L 108.121364 18.788115 
L 109.643182 16.135837 
L 111.165 22.84454 
L 112.686818 16.291853 
L 114.208636 19.646205 
L 115.730455 23.546614 
L 117.252273 18.944131 
L 118.774091 32.439547 
L 120.295909 28.617146 
L 121.817727 33.14162 
L 123.339545 36.027923 
L 124.861364 36.808005 
L 126.383182 43.204675 
L 127.905 45.232888 
L 129.426818 46.01297 
L 130.948636 51.083501 
L 132.470455 60.912532 
L 133.992273 63.876843 
L 135.514091 64.266884 
L 137.035909 71.521645 
L 138.557727 79.790512 
L 140.079545 79.790512 
L 141.601364 85.485109 
L 143.123182 90.55564 
L 144.645 96.718287 
L 146.166818 94.456049 
L 147.688636 97.42036 
L 149.210455 103.661015 
L 150.732273 105.221178 
L 152.254091 103.661015 
L 153.775909 112.553947 
L 155.297727 115.128217 
L 156.819545 114.426143 
L 158.341364 121.290863 
L 159.863182 122.538994 
L 161.385 128.779648 
L 162.906818 131.197902 
L 164.428636 129.793755 
L 165.950455 132.914082 
L 167.472273 131.27591 
L 168.994091 135.488352 
L 170.515909 138.062622 
L 172.037727 140.558884 
L 173.559545 139.232744 
L 175.081364 138.296646 
L 176.603182 140.870916 
L 178.125 140.7149 
L 179.646818 140.7149 
L 181.168636 140.7149 
L 182.690455 140.324859 
L 184.212273 138.296646 
L 185.734091 137.906605 
L 187.255909 135.800385 
L 188.777727 136.190425 
L 190.299545 134.70827 
L 191.821364 130.573837 
L 193.343182 130.41782 
L 194.865 128.70164 
L 196.386818 125.191272 
L 197.908636 122.929035 
L 199.430455 117.702487 
L 200.952273 119.808708 
L 202.474091 116.454356 
L 203.995909 117.312446 
L 205.517727 108.965571 
L 207.039545 110.915775 
L 208.561364 106.703334 
L 210.083182 103.895039 
L 211.605 105.845244 
L 213.126818 103.895039 
L 214.648636 104.207072 
L 216.170455 104.987154 
L 217.692273 101.632802 
L 219.214091 104.207072 
L 220.735909 111.929882 
L 222.257727 118.01452 
L 223.779545 127.921558 
L 225.301364 137.672581 
L 226.823182 149.997873 
L 228.345 162.167149 
" style="fill:none;stroke:#666666;stroke-linecap:square;stroke-width:2;"/>
   </g>
  </g>
 </g>
 <defs>
  <clipPath id="p62683a04bb">
   <rect height="163.08" width="167.4" x="69.315" y="7.2"/>
  </clipPath>
 </defs>
</svg>
