<?xml version="1.0" encoding="utf-8" standalone="no"?>
<!DOCTYPE svg PUBLIC "-//W3C//DTD SVG 1.1//EN"
  "http://www.w3.org/Graphics/SVG/1.1/DTD/svg11.dtd">
<!-- Created with matplotlib (https://matplotlib.org/) -->
<svg height="217.514375pt" version="1.1" viewBox="0 0 234.747472 217.514375" width="234.747472pt" xmlns="http://www.w3.org/2000/svg" xmlns:xlink="http://www.w3.org/1999/xlink">
 <defs>
  <style type="text/css">
*{stroke-linecap:butt;stroke-linejoin:round;}
  </style>
 </defs>
 <g id="figure_1">
  <g id="patch_1">
   <path d="M 0 217.514375 
L 234.747472 217.514375 
L 234.747472 0 
L 0 0 
z
" style="fill:#ffffff;"/>
  </g>
  <g id="axes_1">
   <g id="patch_2">
    <path d="M 56.624375 170.28 
L 224.024375 170.28 
L 224.024375 7.2 
L 56.624375 7.2 
z
" style="fill:#ffffff;"/>
   </g>
   <g id="PolyCollection_1">
    <path clip-path="url(#p9ab57fd8d7)" d="M 64.233466 170.28 
L 64.233466 170.28 
L 65.755284 170.28 
L 65.755284 170.28 
L 65.755284 170.28 
L 64.233466 170.28 
z
" style="fill:#3d85c6;fill-opacity:0.005;"/>
   </g>
   <g id="PolyCollection_2">
    <path clip-path="url(#p9ab57fd8d7)" d="M 64.233466 14.965714 
L 64.233466 170.28 
L 65.755284 170.28 
L 65.755284 14.965714 
L 65.755284 14.965714 
L 64.233466 14.965714 
z
" style="fill:#cc0000;fill-opacity:0.005;"/>
   </g>
   <g id="PolyCollection_3">
    <path clip-path="url(#p9ab57fd8d7)" d="M 65.755284 170.28 
L 65.755284 170.28 
L 67.277102 170.28 
L 67.277102 170.28 
L 67.277102 170.28 
L 65.755284 170.28 
z
" style="fill:#3d85c6;fill-opacity:0.015;"/>
   </g>
   <g id="PolyCollection_4">
    <path clip-path="url(#p9ab57fd8d7)" d="M 65.755284 14.965714 
L 65.755284 170.28 
L 67.277102 170.28 
L 67.277102 14.965714 
L 67.277102 14.965714 
L 65.755284 14.965714 
z
" style="fill:#cc0000;fill-opacity:0.015;"/>
   </g>
   <g id="PolyCollection_5">
    <path clip-path="url(#p9ab57fd8d7)" d="M 67.277102 170.28 
L 67.277102 170.28 
L 68.79892 170.28 
L 68.79892 170.28 
L 68.79892 170.28 
L 67.277102 170.28 
z
" style="fill:#3d85c6;fill-opacity:0.025;"/>
   </g>
   <g id="PolyCollection_6">
    <path clip-path="url(#p9ab57fd8d7)" d="M 67.277102 14.965714 
L 67.277102 170.28 
L 68.79892 170.28 
L 68.79892 14.965714 
L 68.79892 14.965714 
L 67.277102 14.965714 
z
" style="fill:#cc0000;fill-opacity:0.025;"/>
   </g>
   <g id="PolyCollection_7">
    <path clip-path="url(#p9ab57fd8d7)" d="M 68.79892 170.28 
L 68.79892 170.28 
L 70.320739 170.28 
L 70.320739 170.28 
L 70.320739 170.28 
L 68.79892 170.28 
z
" style="fill:#3d85c6;fill-opacity:0.035;"/>
   </g>
   <g id="PolyCollection_8">
    <path clip-path="url(#p9ab57fd8d7)" d="M 68.79892 14.965714 
L 68.79892 170.28 
L 70.320739 170.28 
L 70.320739 14.965714 
L 70.320739 14.965714 
L 68.79892 14.965714 
z
" style="fill:#cc0000;fill-opacity:0.035;"/>
   </g>
   <g id="PolyCollection_9">
    <path clip-path="url(#p9ab57fd8d7)" d="M 70.320739 170.28 
L 70.320739 170.28 
L 71.842557 170.28 
L 71.842557 170.28 
L 71.842557 170.28 
L 70.320739 170.28 
z
" style="fill:#3d85c6;fill-opacity:0.045;"/>
   </g>
   <g id="PolyCollection_10">
    <path clip-path="url(#p9ab57fd8d7)" d="M 70.320739 14.965714 
L 70.320739 170.28 
L 71.842557 170.28 
L 71.842557 14.965714 
L 71.842557 14.965714 
L 70.320739 14.965714 
z
" style="fill:#cc0000;fill-opacity:0.045;"/>
   </g>
   <g id="PolyCollection_11">
    <path clip-path="url(#p9ab57fd8d7)" d="M 71.842557 170.28 
L 71.842557 170.28 
L 73.364375 170.28 
L 73.364375 170.28 
L 73.364375 170.28 
L 71.842557 170.28 
z
" style="fill:#3d85c6;fill-opacity:0.055;"/>
   </g>
   <g id="PolyCollection_12">
    <path clip-path="url(#p9ab57fd8d7)" d="M 71.842557 14.965714 
L 71.842557 170.28 
L 73.364375 170.28 
L 73.364375 14.965714 
L 73.364375 14.965714 
L 71.842557 14.965714 
z
" style="fill:#cc0000;fill-opacity:0.055;"/>
   </g>
   <g id="PolyCollection_13">
    <path clip-path="url(#p9ab57fd8d7)" d="M 73.364375 170.28 
L 73.364375 170.28 
L 74.886193 170.28 
L 74.886193 170.28 
L 74.886193 170.28 
L 73.364375 170.28 
z
" style="fill:#3d85c6;fill-opacity:0.065;"/>
   </g>
   <g id="PolyCollection_14">
    <path clip-path="url(#p9ab57fd8d7)" d="M 73.364375 14.965714 
L 73.364375 170.28 
L 74.886193 170.28 
L 74.886193 14.965714 
L 74.886193 14.965714 
L 73.364375 14.965714 
z
" style="fill:#cc0000;fill-opacity:0.065;"/>
   </g>
   <g id="PolyCollection_15">
    <path clip-path="url(#p9ab57fd8d7)" d="M 74.886193 170.28 
L 74.886193 170.28 
L 76.408011 170.28 
L 76.408011 170.28 
L 76.408011 170.28 
L 74.886193 170.28 
z
" style="fill:#3d85c6;fill-opacity:0.075;"/>
   </g>
   <g id="PolyCollection_16">
    <path clip-path="url(#p9ab57fd8d7)" d="M 74.886193 14.965714 
L 74.886193 170.28 
L 76.408011 170.28 
L 76.408011 14.965714 
L 76.408011 14.965714 
L 74.886193 14.965714 
z
" style="fill:#cc0000;fill-opacity:0.075;"/>
   </g>
   <g id="PolyCollection_17">
    <path clip-path="url(#p9ab57fd8d7)" d="M 76.408011 170.28 
L 76.408011 170.28 
L 77.92983 170.28 
L 77.92983 170.28 
L 77.92983 170.28 
L 76.408011 170.28 
z
" style="fill:#3d85c6;fill-opacity:0.085;"/>
   </g>
   <g id="PolyCollection_18">
    <path clip-path="url(#p9ab57fd8d7)" d="M 76.408011 14.965714 
L 76.408011 170.28 
L 77.92983 170.28 
L 77.92983 14.965714 
L 77.92983 14.965714 
L 76.408011 14.965714 
z
" style="fill:#cc0000;fill-opacity:0.085;"/>
   </g>
   <g id="PolyCollection_19">
    <path clip-path="url(#p9ab57fd8d7)" d="M 77.92983 170.28 
L 77.92983 170.28 
L 79.451648 170.28 
L 79.451648 170.28 
L 79.451648 170.28 
L 77.92983 170.28 
z
" style="fill:#3d85c6;fill-opacity:0.095;"/>
   </g>
   <g id="PolyCollection_20">
    <path clip-path="url(#p9ab57fd8d7)" d="M 77.92983 14.965714 
L 77.92983 170.28 
L 79.451648 170.28 
L 79.451648 14.965714 
L 79.451648 14.965714 
L 77.92983 14.965714 
z
" style="fill:#cc0000;fill-opacity:0.095;"/>
   </g>
   <g id="PolyCollection_21">
    <path clip-path="url(#p9ab57fd8d7)" d="M 79.451648 170.28 
L 79.451648 170.28 
L 80.973466 170.28 
L 80.973466 170.28 
L 80.973466 170.28 
L 79.451648 170.28 
z
" style="fill:#3d85c6;fill-opacity:0.105;"/>
   </g>
   <g id="PolyCollection_22">
    <path clip-path="url(#p9ab57fd8d7)" d="M 79.451648 14.965714 
L 79.451648 170.28 
L 80.973466 170.28 
L 80.973466 14.965714 
L 80.973466 14.965714 
L 79.451648 14.965714 
z
" style="fill:#cc0000;fill-opacity:0.105;"/>
   </g>
   <g id="PolyCollection_23">
    <path clip-path="url(#p9ab57fd8d7)" d="M 80.973466 170.28 
L 80.973466 170.28 
L 82.495284 170.28 
L 82.495284 170.28 
L 82.495284 170.28 
L 80.973466 170.28 
z
" style="fill:#3d85c6;fill-opacity:0.115;"/>
   </g>
   <g id="PolyCollection_24">
    <path clip-path="url(#p9ab57fd8d7)" d="M 80.973466 14.965714 
L 80.973466 170.28 
L 82.495284 170.28 
L 82.495284 14.965714 
L 82.495284 14.965714 
L 80.973466 14.965714 
z
" style="fill:#cc0000;fill-opacity:0.115;"/>
   </g>
   <g id="PolyCollection_25">
    <path clip-path="url(#p9ab57fd8d7)" d="M 82.495284 170.28 
L 82.495284 170.28 
L 84.017102 170.28 
L 84.017102 170.28 
L 84.017102 170.28 
L 82.495284 170.28 
z
" style="fill:#3d85c6;fill-opacity:0.125;"/>
   </g>
   <g id="PolyCollection_26">
    <path clip-path="url(#p9ab57fd8d7)" d="M 82.495284 14.965714 
L 82.495284 170.28 
L 84.017102 170.28 
L 84.017102 14.965714 
L 84.017102 14.965714 
L 82.495284 14.965714 
z
" style="fill:#cc0000;fill-opacity:0.125;"/>
   </g>
   <g id="PolyCollection_27">
    <path clip-path="url(#p9ab57fd8d7)" d="M 84.017102 170.28 
L 84.017102 170.28 
L 85.53892 170.28 
L 85.53892 170.28 
L 85.53892 170.28 
L 84.017102 170.28 
z
" style="fill:#3d85c6;fill-opacity:0.135;"/>
   </g>
   <g id="PolyCollection_28">
    <path clip-path="url(#p9ab57fd8d7)" d="M 84.017102 14.965714 
L 84.017102 170.28 
L 85.53892 170.28 
L 85.53892 14.965714 
L 85.53892 14.965714 
L 84.017102 14.965714 
z
" style="fill:#cc0000;fill-opacity:0.135;"/>
   </g>
   <g id="PolyCollection_29">
    <path clip-path="url(#p9ab57fd8d7)" d="M 85.53892 170.28 
L 85.53892 170.28 
L 87.060739 170.28 
L 87.060739 170.28 
L 87.060739 170.28 
L 85.53892 170.28 
z
" style="fill:#3d85c6;fill-opacity:0.145;"/>
   </g>
   <g id="PolyCollection_30">
    <path clip-path="url(#p9ab57fd8d7)" d="M 85.53892 14.965714 
L 85.53892 170.28 
L 87.060739 170.28 
L 87.060739 14.965714 
L 87.060739 14.965714 
L 85.53892 14.965714 
z
" style="fill:#cc0000;fill-opacity:0.145;"/>
   </g>
   <g id="PolyCollection_31">
    <path clip-path="url(#p9ab57fd8d7)" d="M 87.060739 170.28 
L 87.060739 170.28 
L 88.582557 170.28 
L 88.582557 170.28 
L 88.582557 170.28 
L 87.060739 170.28 
z
" style="fill:#3d85c6;fill-opacity:0.155;"/>
   </g>
   <g id="PolyCollection_32">
    <path clip-path="url(#p9ab57fd8d7)" d="M 87.060739 14.965714 
L 87.060739 170.28 
L 88.582557 170.28 
L 88.582557 14.965714 
L 88.582557 14.965714 
L 87.060739 14.965714 
z
" style="fill:#cc0000;fill-opacity:0.155;"/>
   </g>
   <g id="PolyCollection_33">
    <path clip-path="url(#p9ab57fd8d7)" d="M 88.582557 170.28 
L 88.582557 170.28 
L 90.104375 170.28 
L 90.104375 170.28 
L 90.104375 170.28 
L 88.582557 170.28 
z
" style="fill:#3d85c6;fill-opacity:0.165;"/>
   </g>
   <g id="PolyCollection_34">
    <path clip-path="url(#p9ab57fd8d7)" d="M 88.582557 14.965714 
L 88.582557 170.28 
L 90.104375 170.28 
L 90.104375 14.965714 
L 90.104375 14.965714 
L 88.582557 14.965714 
z
" style="fill:#cc0000;fill-opacity:0.165;"/>
   </g>
   <g id="PolyCollection_35">
    <path clip-path="url(#p9ab57fd8d7)" d="M 90.104375 170.28 
L 90.104375 170.28 
L 91.626193 170.28 
L 91.626193 170.28 
L 91.626193 170.28 
L 90.104375 170.28 
z
" style="fill:#3d85c6;fill-opacity:0.175;"/>
   </g>
   <g id="PolyCollection_36">
    <path clip-path="url(#p9ab57fd8d7)" d="M 90.104375 14.965714 
L 90.104375 170.28 
L 91.626193 170.28 
L 91.626193 14.965714 
L 91.626193 14.965714 
L 90.104375 14.965714 
z
" style="fill:#cc0000;fill-opacity:0.175;"/>
   </g>
   <g id="PolyCollection_37">
    <path clip-path="url(#p9ab57fd8d7)" d="M 91.626193 170.28 
L 91.626193 170.28 
L 93.148011 170.28 
L 93.148011 170.28 
L 93.148011 170.28 
L 91.626193 170.28 
z
" style="fill:#3d85c6;fill-opacity:0.185;"/>
   </g>
   <g id="PolyCollection_38">
    <path clip-path="url(#p9ab57fd8d7)" d="M 91.626193 14.965714 
L 91.626193 170.28 
L 93.148011 170.28 
L 93.148011 14.965714 
L 93.148011 14.965714 
L 91.626193 14.965714 
z
" style="fill:#cc0000;fill-opacity:0.185;"/>
   </g>
   <g id="PolyCollection_39">
    <path clip-path="url(#p9ab57fd8d7)" d="M 93.148011 170.28 
L 93.148011 170.28 
L 94.66983 170.28 
L 94.66983 170.28 
L 94.66983 170.28 
L 93.148011 170.28 
z
" style="fill:#3d85c6;fill-opacity:0.195;"/>
   </g>
   <g id="PolyCollection_40">
    <path clip-path="url(#p9ab57fd8d7)" d="M 93.148011 14.965714 
L 93.148011 170.28 
L 94.66983 170.28 
L 94.66983 14.965714 
L 94.66983 14.965714 
L 93.148011 14.965714 
z
" style="fill:#cc0000;fill-opacity:0.195;"/>
   </g>
   <g id="PolyCollection_41">
    <path clip-path="url(#p9ab57fd8d7)" d="M 94.66983 170.28 
L 94.66983 170.28 
L 96.191648 170.28 
L 96.191648 170.28 
L 96.191648 170.28 
L 94.66983 170.28 
z
" style="fill:#3d85c6;fill-opacity:0.205;"/>
   </g>
   <g id="PolyCollection_42">
    <path clip-path="url(#p9ab57fd8d7)" d="M 94.66983 14.965714 
L 94.66983 170.28 
L 96.191648 170.28 
L 96.191648 14.965714 
L 96.191648 14.965714 
L 94.66983 14.965714 
z
" style="fill:#cc0000;fill-opacity:0.205;"/>
   </g>
   <g id="PolyCollection_43">
    <path clip-path="url(#p9ab57fd8d7)" d="M 96.191648 170.28 
L 96.191648 170.28 
L 97.713466 170.28 
L 97.713466 170.28 
L 97.713466 170.28 
L 96.191648 170.28 
z
" style="fill:#3d85c6;fill-opacity:0.215;"/>
   </g>
   <g id="PolyCollection_44">
    <path clip-path="url(#p9ab57fd8d7)" d="M 96.191648 14.965714 
L 96.191648 170.28 
L 97.713466 170.28 
L 97.713466 14.965714 
L 97.713466 14.965714 
L 96.191648 14.965714 
z
" style="fill:#cc0000;fill-opacity:0.215;"/>
   </g>
   <g id="PolyCollection_45">
    <path clip-path="url(#p9ab57fd8d7)" d="M 97.713466 170.28 
L 97.713466 170.28 
L 99.235284 170.28 
L 99.235284 170.28 
L 99.235284 170.28 
L 97.713466 170.28 
z
" style="fill:#3d85c6;fill-opacity:0.225;"/>
   </g>
   <g id="PolyCollection_46">
    <path clip-path="url(#p9ab57fd8d7)" d="M 97.713466 14.965714 
L 97.713466 170.28 
L 99.235284 170.28 
L 99.235284 14.965714 
L 99.235284 14.965714 
L 97.713466 14.965714 
z
" style="fill:#cc0000;fill-opacity:0.225;"/>
   </g>
   <g id="PolyCollection_47">
    <path clip-path="url(#p9ab57fd8d7)" d="M 99.235284 170.28 
L 99.235284 170.28 
L 100.757102 170.28 
L 100.757102 170.28 
L 100.757102 170.28 
L 99.235284 170.28 
z
" style="fill:#3d85c6;fill-opacity:0.235;"/>
   </g>
   <g id="PolyCollection_48">
    <path clip-path="url(#p9ab57fd8d7)" d="M 99.235284 14.965714 
L 99.235284 170.28 
L 100.757102 170.28 
L 100.757102 14.965714 
L 100.757102 14.965714 
L 99.235284 14.965714 
z
" style="fill:#cc0000;fill-opacity:0.235;"/>
   </g>
   <g id="PolyCollection_49">
    <path clip-path="url(#p9ab57fd8d7)" d="M 100.757102 170.28 
L 100.757102 170.28 
L 102.27892 170.28 
L 102.27892 170.28 
L 102.27892 170.28 
L 100.757102 170.28 
z
" style="fill:#3d85c6;fill-opacity:0.245;"/>
   </g>
   <g id="PolyCollection_50">
    <path clip-path="url(#p9ab57fd8d7)" d="M 100.757102 14.965714 
L 100.757102 170.28 
L 102.27892 170.28 
L 102.27892 14.965714 
L 102.27892 14.965714 
L 100.757102 14.965714 
z
" style="fill:#cc0000;fill-opacity:0.245;"/>
   </g>
   <g id="PolyCollection_51">
    <path clip-path="url(#p9ab57fd8d7)" d="M 102.27892 170.28 
L 102.27892 170.28 
L 103.800739 170.28 
L 103.800739 170.28 
L 103.800739 170.28 
L 102.27892 170.28 
z
" style="fill:#3d85c6;fill-opacity:0.255;"/>
   </g>
   <g id="PolyCollection_52">
    <path clip-path="url(#p9ab57fd8d7)" d="M 102.27892 14.965714 
L 102.27892 170.28 
L 103.800739 170.28 
L 103.800739 14.965714 
L 103.800739 14.965714 
L 102.27892 14.965714 
z
" style="fill:#cc0000;fill-opacity:0.255;"/>
   </g>
   <g id="PolyCollection_53">
    <path clip-path="url(#p9ab57fd8d7)" d="M 103.800739 170.199941 
L 103.800739 170.28 
L 105.322557 170.28 
L 105.322557 170.199941 
L 105.322557 170.199941 
L 103.800739 170.199941 
z
" style="fill:#3d85c6;fill-opacity:0.265;"/>
   </g>
   <g id="PolyCollection_54">
    <path clip-path="url(#p9ab57fd8d7)" d="M 103.800739 14.965714 
L 103.800739 170.199941 
L 105.322557 170.199941 
L 105.322557 14.965714 
L 105.322557 14.965714 
L 103.800739 14.965714 
z
" style="fill:#cc0000;fill-opacity:0.265;"/>
   </g>
   <g id="PolyCollection_55">
    <path clip-path="url(#p9ab57fd8d7)" d="M 105.322557 170.28 
L 105.322557 170.28 
L 106.844375 170.28 
L 106.844375 170.28 
L 106.844375 170.28 
L 105.322557 170.28 
z
" style="fill:#3d85c6;fill-opacity:0.275;"/>
   </g>
   <g id="PolyCollection_56">
    <path clip-path="url(#p9ab57fd8d7)" d="M 105.322557 14.965714 
L 105.322557 170.28 
L 106.844375 170.28 
L 106.844375 14.965714 
L 106.844375 14.965714 
L 105.322557 14.965714 
z
" style="fill:#cc0000;fill-opacity:0.275;"/>
   </g>
   <g id="PolyCollection_57">
    <path clip-path="url(#p9ab57fd8d7)" d="M 106.844375 170.28 
L 106.844375 170.28 
L 108.366193 170.28 
L 108.366193 170.28 
L 108.366193 170.28 
L 106.844375 170.28 
z
" style="fill:#3d85c6;fill-opacity:0.285;"/>
   </g>
   <g id="PolyCollection_58">
    <path clip-path="url(#p9ab57fd8d7)" d="M 106.844375 14.965714 
L 106.844375 170.28 
L 108.366193 170.28 
L 108.366193 14.965714 
L 108.366193 14.965714 
L 106.844375 14.965714 
z
" style="fill:#cc0000;fill-opacity:0.285;"/>
   </g>
   <g id="PolyCollection_59">
    <path clip-path="url(#p9ab57fd8d7)" d="M 108.366193 170.28 
L 108.366193 170.28 
L 109.888011 170.28 
L 109.888011 170.28 
L 109.888011 170.28 
L 108.366193 170.28 
z
" style="fill:#3d85c6;fill-opacity:0.295;"/>
   </g>
   <g id="PolyCollection_60">
    <path clip-path="url(#p9ab57fd8d7)" d="M 108.366193 14.965714 
L 108.366193 170.28 
L 109.888011 170.28 
L 109.888011 14.965714 
L 109.888011 14.965714 
L 108.366193 14.965714 
z
" style="fill:#cc0000;fill-opacity:0.295;"/>
   </g>
   <g id="PolyCollection_61">
    <path clip-path="url(#p9ab57fd8d7)" d="M 109.888011 170.28 
L 109.888011 170.28 
L 111.40983 170.28 
L 111.40983 170.28 
L 111.40983 170.28 
L 109.888011 170.28 
z
" style="fill:#3d85c6;fill-opacity:0.305;"/>
   </g>
   <g id="PolyCollection_62">
    <path clip-path="url(#p9ab57fd8d7)" d="M 109.888011 14.965714 
L 109.888011 170.28 
L 111.40983 170.28 
L 111.40983 14.965714 
L 111.40983 14.965714 
L 109.888011 14.965714 
z
" style="fill:#cc0000;fill-opacity:0.305;"/>
   </g>
   <g id="PolyCollection_63">
    <path clip-path="url(#p9ab57fd8d7)" d="M 111.40983 170.28 
L 111.40983 170.28 
L 112.931648 170.28 
L 112.931648 170.28 
L 112.931648 170.28 
L 111.40983 170.28 
z
" style="fill:#3d85c6;fill-opacity:0.315;"/>
   </g>
   <g id="PolyCollection_64">
    <path clip-path="url(#p9ab57fd8d7)" d="M 111.40983 14.965714 
L 111.40983 170.28 
L 112.931648 170.28 
L 112.931648 14.965714 
L 112.931648 14.965714 
L 111.40983 14.965714 
z
" style="fill:#cc0000;fill-opacity:0.315;"/>
   </g>
   <g id="PolyCollection_65">
    <path clip-path="url(#p9ab57fd8d7)" d="M 112.931648 170.28 
L 112.931648 170.28 
L 114.453466 170.28 
L 114.453466 170.28 
L 114.453466 170.28 
L 112.931648 170.28 
z
" style="fill:#3d85c6;fill-opacity:0.325;"/>
   </g>
   <g id="PolyCollection_66">
    <path clip-path="url(#p9ab57fd8d7)" d="M 112.931648 14.965714 
L 112.931648 170.28 
L 114.453466 170.28 
L 114.453466 14.965714 
L 114.453466 14.965714 
L 112.931648 14.965714 
z
" style="fill:#cc0000;fill-opacity:0.325;"/>
   </g>
   <g id="PolyCollection_67">
    <path clip-path="url(#p9ab57fd8d7)" d="M 114.453466 170.18311 
L 114.453466 170.28 
L 115.975284 170.28 
L 115.975284 170.18311 
L 115.975284 170.18311 
L 114.453466 170.18311 
z
" style="fill:#3d85c6;fill-opacity:0.335;"/>
   </g>
   <g id="PolyCollection_68">
    <path clip-path="url(#p9ab57fd8d7)" d="M 114.453466 14.965714 
L 114.453466 170.18311 
L 115.975284 170.18311 
L 115.975284 14.965714 
L 115.975284 14.965714 
L 114.453466 14.965714 
z
" style="fill:#cc0000;fill-opacity:0.335;"/>
   </g>
   <g id="PolyCollection_69">
    <path clip-path="url(#p9ab57fd8d7)" d="M 115.975284 170.28 
L 115.975284 170.28 
L 117.497102 170.28 
L 117.497102 170.28 
L 117.497102 170.28 
L 115.975284 170.28 
z
" style="fill:#3d85c6;fill-opacity:0.345;"/>
   </g>
   <g id="PolyCollection_70">
    <path clip-path="url(#p9ab57fd8d7)" d="M 115.975284 14.965714 
L 115.975284 170.28 
L 117.497102 170.28 
L 117.497102 14.965714 
L 117.497102 14.965714 
L 115.975284 14.965714 
z
" style="fill:#cc0000;fill-opacity:0.345;"/>
   </g>
   <g id="PolyCollection_71">
    <path clip-path="url(#p9ab57fd8d7)" d="M 117.497102 170.178355 
L 117.497102 170.28 
L 119.01892 170.28 
L 119.01892 170.178355 
L 119.01892 170.178355 
L 117.497102 170.178355 
z
" style="fill:#3d85c6;fill-opacity:0.355;"/>
   </g>
   <g id="PolyCollection_72">
    <path clip-path="url(#p9ab57fd8d7)" d="M 117.497102 14.965714 
L 117.497102 170.178355 
L 119.01892 170.178355 
L 119.01892 14.965714 
L 119.01892 14.965714 
L 117.497102 14.965714 
z
" style="fill:#cc0000;fill-opacity:0.355;"/>
   </g>
   <g id="PolyCollection_73">
    <path clip-path="url(#p9ab57fd8d7)" d="M 119.01892 170.058439 
L 119.01892 170.28 
L 120.540739 170.28 
L 120.540739 170.058439 
L 120.540739 170.058439 
L 119.01892 170.058439 
z
" style="fill:#3d85c6;fill-opacity:0.365;"/>
   </g>
   <g id="PolyCollection_74">
    <path clip-path="url(#p9ab57fd8d7)" d="M 119.01892 14.965714 
L 119.01892 170.058439 
L 120.540739 170.058439 
L 120.540739 14.965714 
L 120.540739 14.965714 
L 119.01892 14.965714 
z
" style="fill:#cc0000;fill-opacity:0.365;"/>
   </g>
   <g id="PolyCollection_75">
    <path clip-path="url(#p9ab57fd8d7)" d="M 120.540739 169.9384 
L 120.540739 170.28 
L 122.062557 170.28 
L 122.062557 169.9384 
L 122.062557 169.9384 
L 120.540739 169.9384 
z
" style="fill:#3d85c6;fill-opacity:0.375;"/>
   </g>
   <g id="PolyCollection_76">
    <path clip-path="url(#p9ab57fd8d7)" d="M 120.540739 14.965714 
L 120.540739 169.9384 
L 122.062557 169.9384 
L 122.062557 14.965714 
L 122.062557 14.965714 
L 120.540739 14.965714 
z
" style="fill:#cc0000;fill-opacity:0.375;"/>
   </g>
   <g id="PolyCollection_77">
    <path clip-path="url(#p9ab57fd8d7)" d="M 122.062557 170.051429 
L 122.062557 170.28 
L 123.584375 170.28 
L 123.584375 170.051429 
L 123.584375 170.051429 
L 122.062557 170.051429 
z
" style="fill:#3d85c6;fill-opacity:0.385;"/>
   </g>
   <g id="PolyCollection_78">
    <path clip-path="url(#p9ab57fd8d7)" d="M 122.062557 14.965714 
L 122.062557 170.051429 
L 123.584375 170.051429 
L 123.584375 14.965714 
L 123.584375 14.965714 
L 122.062557 14.965714 
z
" style="fill:#cc0000;fill-opacity:0.385;"/>
   </g>
   <g id="PolyCollection_79">
    <path clip-path="url(#p9ab57fd8d7)" d="M 123.584375 169.666594 
L 123.584375 170.28 
L 125.106193 170.28 
L 125.106193 169.666594 
L 125.106193 169.666594 
L 123.584375 169.666594 
z
" style="fill:#3d85c6;fill-opacity:0.395;"/>
   </g>
   <g id="PolyCollection_80">
    <path clip-path="url(#p9ab57fd8d7)" d="M 123.584375 14.965714 
L 123.584375 169.666594 
L 125.106193 169.666594 
L 125.106193 14.965714 
L 125.106193 14.965714 
L 123.584375 14.965714 
z
" style="fill:#cc0000;fill-opacity:0.395;"/>
   </g>
   <g id="PolyCollection_81">
    <path clip-path="url(#p9ab57fd8d7)" d="M 125.106193 169.744433 
L 125.106193 170.28 
L 126.628011 170.28 
L 126.628011 169.744433 
L 126.628011 169.744433 
L 125.106193 169.744433 
z
" style="fill:#3d85c6;fill-opacity:0.405;"/>
   </g>
   <g id="PolyCollection_82">
    <path clip-path="url(#p9ab57fd8d7)" d="M 125.106193 14.965714 
L 125.106193 169.744433 
L 126.628011 169.744433 
L 126.628011 14.965714 
L 126.628011 14.965714 
L 125.106193 14.965714 
z
" style="fill:#cc0000;fill-opacity:0.405;"/>
   </g>
   <g id="PolyCollection_83">
    <path clip-path="url(#p9ab57fd8d7)" d="M 126.628011 170.012217 
L 126.628011 170.28 
L 128.14983 170.28 
L 128.14983 170.012217 
L 128.14983 170.012217 
L 126.628011 170.012217 
z
" style="fill:#3d85c6;fill-opacity:0.415;"/>
   </g>
   <g id="PolyCollection_84">
    <path clip-path="url(#p9ab57fd8d7)" d="M 126.628011 14.965714 
L 126.628011 170.012217 
L 128.14983 170.012217 
L 128.14983 14.965714 
L 128.14983 14.965714 
L 126.628011 14.965714 
z
" style="fill:#cc0000;fill-opacity:0.415;"/>
   </g>
   <g id="PolyCollection_85">
    <path clip-path="url(#p9ab57fd8d7)" d="M 128.14983 168.851166 
L 128.14983 170.28 
L 129.671648 170.28 
L 129.671648 168.851166 
L 129.671648 168.851166 
L 128.14983 168.851166 
z
" style="fill:#3d85c6;fill-opacity:0.425;"/>
   </g>
   <g id="PolyCollection_86">
    <path clip-path="url(#p9ab57fd8d7)" d="M 128.14983 14.965714 
L 128.14983 168.851166 
L 129.671648 168.851166 
L 129.671648 14.965714 
L 129.671648 14.965714 
L 128.14983 14.965714 
z
" style="fill:#cc0000;fill-opacity:0.425;"/>
   </g>
   <g id="PolyCollection_87">
    <path clip-path="url(#p9ab57fd8d7)" d="M 129.671648 169.824087 
L 129.671648 170.28 
L 131.193466 170.28 
L 131.193466 169.824087 
L 131.193466 169.824087 
L 129.671648 169.824087 
z
" style="fill:#3d85c6;fill-opacity:0.435;"/>
   </g>
   <g id="PolyCollection_88">
    <path clip-path="url(#p9ab57fd8d7)" d="M 129.671648 14.965714 
L 129.671648 169.824087 
L 131.193466 169.824087 
L 131.193466 14.965714 
L 131.193466 14.965714 
L 129.671648 14.965714 
z
" style="fill:#cc0000;fill-opacity:0.435;"/>
   </g>
   <g id="PolyCollection_89">
    <path clip-path="url(#p9ab57fd8d7)" d="M 131.193466 169.621191 
L 131.193466 170.28 
L 132.715284 170.28 
L 132.715284 169.621191 
L 132.715284 169.621191 
L 131.193466 169.621191 
z
" style="fill:#3d85c6;fill-opacity:0.445;"/>
   </g>
   <g id="PolyCollection_90">
    <path clip-path="url(#p9ab57fd8d7)" d="M 131.193466 14.965714 
L 131.193466 169.621191 
L 132.715284 169.621191 
L 132.715284 14.965714 
L 132.715284 14.965714 
L 131.193466 14.965714 
z
" style="fill:#cc0000;fill-opacity:0.445;"/>
   </g>
   <g id="PolyCollection_91">
    <path clip-path="url(#p9ab57fd8d7)" d="M 132.715284 169.001693 
L 132.715284 170.28 
L 134.237102 170.28 
L 134.237102 169.001693 
L 134.237102 169.001693 
L 132.715284 169.001693 
z
" style="fill:#3d85c6;fill-opacity:0.455;"/>
   </g>
   <g id="PolyCollection_92">
    <path clip-path="url(#p9ab57fd8d7)" d="M 132.715284 14.965714 
L 132.715284 169.001693 
L 134.237102 169.001693 
L 134.237102 14.965714 
L 134.237102 14.965714 
L 132.715284 14.965714 
z
" style="fill:#cc0000;fill-opacity:0.455;"/>
   </g>
   <g id="PolyCollection_93">
    <path clip-path="url(#p9ab57fd8d7)" d="M 134.237102 167.286791 
L 134.237102 170.28 
L 135.75892 170.28 
L 135.75892 167.286791 
L 135.75892 167.286791 
L 134.237102 167.286791 
z
" style="fill:#3d85c6;fill-opacity:0.465;"/>
   </g>
   <g id="PolyCollection_94">
    <path clip-path="url(#p9ab57fd8d7)" d="M 134.237102 14.965714 
L 134.237102 167.286791 
L 135.75892 167.286791 
L 135.75892 14.965714 
L 135.75892 14.965714 
L 134.237102 14.965714 
z
" style="fill:#cc0000;fill-opacity:0.465;"/>
   </g>
   <g id="PolyCollection_95">
    <path clip-path="url(#p9ab57fd8d7)" d="M 135.75892 168.097598 
L 135.75892 170.28 
L 137.280739 170.28 
L 137.280739 168.097598 
L 137.280739 168.097598 
L 135.75892 168.097598 
z
" style="fill:#3d85c6;fill-opacity:0.475;"/>
   </g>
   <g id="PolyCollection_96">
    <path clip-path="url(#p9ab57fd8d7)" d="M 135.75892 14.965714 
L 135.75892 168.097598 
L 137.280739 168.097598 
L 137.280739 14.965714 
L 137.280739 14.965714 
L 135.75892 14.965714 
z
" style="fill:#cc0000;fill-opacity:0.475;"/>
   </g>
   <g id="PolyCollection_97">
    <path clip-path="url(#p9ab57fd8d7)" d="M 137.280739 167.859034 
L 137.280739 170.28 
L 138.802557 170.28 
L 138.802557 167.859034 
L 138.802557 167.859034 
L 137.280739 167.859034 
z
" style="fill:#3d85c6;fill-opacity:0.485;"/>
   </g>
   <g id="PolyCollection_98">
    <path clip-path="url(#p9ab57fd8d7)" d="M 137.280739 14.965714 
L 137.280739 167.859034 
L 138.802557 167.859034 
L 138.802557 14.965714 
L 138.802557 14.965714 
L 137.280739 14.965714 
z
" style="fill:#cc0000;fill-opacity:0.485;"/>
   </g>
   <g id="PolyCollection_99">
    <path clip-path="url(#p9ab57fd8d7)" d="M 138.802557 164.278394 
L 138.802557 170.28 
L 140.324375 170.28 
L 140.324375 164.278394 
L 140.324375 164.278394 
L 138.802557 164.278394 
z
" style="fill:#3d85c6;fill-opacity:0.495;"/>
   </g>
   <g id="PolyCollection_100">
    <path clip-path="url(#p9ab57fd8d7)" d="M 138.802557 14.965714 
L 138.802557 164.278394 
L 140.324375 164.278394 
L 140.324375 14.965714 
L 140.324375 14.965714 
L 138.802557 14.965714 
z
" style="fill:#cc0000;fill-opacity:0.495;"/>
   </g>
   <g id="PolyCollection_101">
    <path clip-path="url(#p9ab57fd8d7)" d="M 140.324375 165.452664 
L 140.324375 170.28 
L 141.846193 170.28 
L 141.846193 165.452664 
L 141.846193 165.452664 
L 140.324375 165.452664 
z
" style="fill:#3d85c6;fill-opacity:0.505;"/>
   </g>
   <g id="PolyCollection_102">
    <path clip-path="url(#p9ab57fd8d7)" d="M 140.324375 14.965714 
L 140.324375 165.452664 
L 141.846193 165.452664 
L 141.846193 14.965714 
L 141.846193 14.965714 
L 140.324375 14.965714 
z
" style="fill:#cc0000;fill-opacity:0.505;"/>
   </g>
   <g id="PolyCollection_103">
    <path clip-path="url(#p9ab57fd8d7)" d="M 141.846193 164.128939 
L 141.846193 170.28 
L 143.368011 170.28 
L 143.368011 164.128939 
L 143.368011 164.128939 
L 141.846193 164.128939 
z
" style="fill:#3d85c6;fill-opacity:0.515;"/>
   </g>
   <g id="PolyCollection_104">
    <path clip-path="url(#p9ab57fd8d7)" d="M 141.846193 14.965714 
L 141.846193 164.128939 
L 143.368011 164.128939 
L 143.368011 14.965714 
L 143.368011 14.965714 
L 141.846193 14.965714 
z
" style="fill:#cc0000;fill-opacity:0.515;"/>
   </g>
   <g id="PolyCollection_105">
    <path clip-path="url(#p9ab57fd8d7)" d="M 143.368011 160.952466 
L 143.368011 170.28 
L 144.88983 170.28 
L 144.88983 160.952466 
L 144.88983 160.952466 
L 143.368011 160.952466 
z
" style="fill:#3d85c6;fill-opacity:0.525;"/>
   </g>
   <g id="PolyCollection_106">
    <path clip-path="url(#p9ab57fd8d7)" d="M 143.368011 14.965714 
L 143.368011 160.952466 
L 144.88983 160.952466 
L 144.88983 14.965714 
L 144.88983 14.965714 
L 143.368011 14.965714 
z
" style="fill:#cc0000;fill-opacity:0.525;"/>
   </g>
   <g id="PolyCollection_107">
    <path clip-path="url(#p9ab57fd8d7)" d="M 144.88983 161.871265 
L 144.88983 170.28 
L 146.411648 170.28 
L 146.411648 161.871265 
L 146.411648 161.871265 
L 144.88983 161.871265 
z
" style="fill:#3d85c6;fill-opacity:0.535;"/>
   </g>
   <g id="PolyCollection_108">
    <path clip-path="url(#p9ab57fd8d7)" d="M 144.88983 14.965714 
L 144.88983 161.871265 
L 146.411648 161.871265 
L 146.411648 14.965714 
L 146.411648 14.965714 
L 144.88983 14.965714 
z
" style="fill:#cc0000;fill-opacity:0.535;"/>
   </g>
   <g id="PolyCollection_109">
    <path clip-path="url(#p9ab57fd8d7)" d="M 146.411648 158.60605 
L 146.411648 170.28 
L 147.933466 170.28 
L 147.933466 158.60605 
L 147.933466 158.60605 
L 146.411648 158.60605 
z
" style="fill:#3d85c6;fill-opacity:0.545;"/>
   </g>
   <g id="PolyCollection_110">
    <path clip-path="url(#p9ab57fd8d7)" d="M 146.411648 14.965714 
L 146.411648 158.60605 
L 147.933466 158.60605 
L 147.933466 14.965714 
L 147.933466 14.965714 
L 146.411648 14.965714 
z
" style="fill:#cc0000;fill-opacity:0.545;"/>
   </g>
   <g id="PolyCollection_111">
    <path clip-path="url(#p9ab57fd8d7)" d="M 147.933466 154.515016 
L 147.933466 170.28 
L 149.455284 170.28 
L 149.455284 154.515016 
L 149.455284 154.515016 
L 147.933466 154.515016 
z
" style="fill:#3d85c6;fill-opacity:0.555;"/>
   </g>
   <g id="PolyCollection_112">
    <path clip-path="url(#p9ab57fd8d7)" d="M 147.933466 14.965714 
L 147.933466 154.515016 
L 149.455284 154.515016 
L 149.455284 14.965714 
L 149.455284 14.965714 
L 147.933466 14.965714 
z
" style="fill:#cc0000;fill-opacity:0.555;"/>
   </g>
   <g id="PolyCollection_113">
    <path clip-path="url(#p9ab57fd8d7)" d="M 149.455284 156.019607 
L 149.455284 170.28 
L 150.977102 170.28 
L 150.977102 156.019607 
L 150.977102 156.019607 
L 149.455284 156.019607 
z
" style="fill:#3d85c6;fill-opacity:0.565;"/>
   </g>
   <g id="PolyCollection_114">
    <path clip-path="url(#p9ab57fd8d7)" d="M 149.455284 14.965714 
L 149.455284 156.019607 
L 150.977102 156.019607 
L 150.977102 14.965714 
L 150.977102 14.965714 
L 149.455284 14.965714 
z
" style="fill:#cc0000;fill-opacity:0.565;"/>
   </g>
   <g id="PolyCollection_115">
    <path clip-path="url(#p9ab57fd8d7)" d="M 150.977102 148.733509 
L 150.977102 170.28 
L 152.49892 170.28 
L 152.49892 148.733509 
L 152.49892 148.733509 
L 150.977102 148.733509 
z
" style="fill:#3d85c6;fill-opacity:0.575;"/>
   </g>
   <g id="PolyCollection_116">
    <path clip-path="url(#p9ab57fd8d7)" d="M 150.977102 14.965714 
L 150.977102 148.733509 
L 152.49892 148.733509 
L 152.49892 14.965714 
L 152.49892 14.965714 
L 150.977102 14.965714 
z
" style="fill:#cc0000;fill-opacity:0.575;"/>
   </g>
   <g id="PolyCollection_117">
    <path clip-path="url(#p9ab57fd8d7)" d="M 152.49892 146.285726 
L 152.49892 170.28 
L 154.020739 170.28 
L 154.020739 146.285726 
L 154.020739 146.285726 
L 152.49892 146.285726 
z
" style="fill:#3d85c6;fill-opacity:0.585;"/>
   </g>
   <g id="PolyCollection_118">
    <path clip-path="url(#p9ab57fd8d7)" d="M 152.49892 14.965714 
L 152.49892 146.285726 
L 154.020739 146.285726 
L 154.020739 14.965714 
L 154.020739 14.965714 
L 152.49892 14.965714 
z
" style="fill:#cc0000;fill-opacity:0.585;"/>
   </g>
   <g id="PolyCollection_119">
    <path clip-path="url(#p9ab57fd8d7)" d="M 154.020739 146.982857 
L 154.020739 170.28 
L 155.542557 170.28 
L 155.542557 146.982857 
L 155.542557 146.982857 
L 154.020739 146.982857 
z
" style="fill:#3d85c6;fill-opacity:0.595;"/>
   </g>
   <g id="PolyCollection_120">
    <path clip-path="url(#p9ab57fd8d7)" d="M 154.020739 14.965714 
L 154.020739 146.982857 
L 155.542557 146.982857 
L 155.542557 14.965714 
L 155.542557 14.965714 
L 154.020739 14.965714 
z
" style="fill:#cc0000;fill-opacity:0.595;"/>
   </g>
   <g id="PolyCollection_121">
    <path clip-path="url(#p9ab57fd8d7)" d="M 155.542557 134.411454 
L 155.542557 170.28 
L 157.064375 170.28 
L 157.064375 134.411454 
L 157.064375 134.411454 
L 155.542557 134.411454 
z
" style="fill:#3d85c6;fill-opacity:0.605;"/>
   </g>
   <g id="PolyCollection_122">
    <path clip-path="url(#p9ab57fd8d7)" d="M 155.542557 14.965714 
L 155.542557 134.411454 
L 157.064375 134.411454 
L 157.064375 14.965714 
L 157.064375 14.965714 
L 155.542557 14.965714 
z
" style="fill:#cc0000;fill-opacity:0.605;"/>
   </g>
   <g id="PolyCollection_123">
    <path clip-path="url(#p9ab57fd8d7)" d="M 157.064375 129.289063 
L 157.064375 170.28 
L 158.586193 170.28 
L 158.586193 129.289063 
L 158.586193 129.289063 
L 157.064375 129.289063 
z
" style="fill:#3d85c6;fill-opacity:0.615;"/>
   </g>
   <g id="PolyCollection_124">
    <path clip-path="url(#p9ab57fd8d7)" d="M 157.064375 14.965714 
L 157.064375 129.289063 
L 158.586193 129.289063 
L 158.586193 14.965714 
L 158.586193 14.965714 
L 157.064375 14.965714 
z
" style="fill:#cc0000;fill-opacity:0.615;"/>
   </g>
   <g id="PolyCollection_125">
    <path clip-path="url(#p9ab57fd8d7)" d="M 158.586193 130.330394 
L 158.586193 170.28 
L 160.108011 170.28 
L 160.108011 130.330394 
L 160.108011 130.330394 
L 158.586193 130.330394 
z
" style="fill:#3d85c6;fill-opacity:0.625;"/>
   </g>
   <g id="PolyCollection_126">
    <path clip-path="url(#p9ab57fd8d7)" d="M 158.586193 14.965714 
L 158.586193 130.330394 
L 160.108011 130.330394 
L 160.108011 14.965714 
L 160.108011 14.965714 
L 158.586193 14.965714 
z
" style="fill:#cc0000;fill-opacity:0.625;"/>
   </g>
   <g id="PolyCollection_127">
    <path clip-path="url(#p9ab57fd8d7)" d="M 160.108011 119.158966 
L 160.108011 170.28 
L 161.62983 170.28 
L 161.62983 119.158966 
L 161.62983 119.158966 
L 160.108011 119.158966 
z
" style="fill:#3d85c6;fill-opacity:0.635;"/>
   </g>
   <g id="PolyCollection_128">
    <path clip-path="url(#p9ab57fd8d7)" d="M 160.108011 14.965714 
L 160.108011 119.158966 
L 161.62983 119.158966 
L 161.62983 14.965714 
L 161.62983 14.965714 
L 160.108011 14.965714 
z
" style="fill:#cc0000;fill-opacity:0.635;"/>
   </g>
   <g id="PolyCollection_129">
    <path clip-path="url(#p9ab57fd8d7)" d="M 161.62983 110.805993 
L 161.62983 170.28 
L 163.151648 170.28 
L 163.151648 110.805993 
L 163.151648 110.805993 
L 161.62983 110.805993 
z
" style="fill:#3d85c6;fill-opacity:0.645;"/>
   </g>
   <g id="PolyCollection_130">
    <path clip-path="url(#p9ab57fd8d7)" d="M 161.62983 14.965714 
L 161.62983 110.805993 
L 163.151648 110.805993 
L 163.151648 14.965714 
L 163.151648 14.965714 
L 161.62983 14.965714 
z
" style="fill:#cc0000;fill-opacity:0.645;"/>
   </g>
   <g id="PolyCollection_131">
    <path clip-path="url(#p9ab57fd8d7)" d="M 163.151648 99.008458 
L 163.151648 170.28 
L 164.673466 170.28 
L 164.673466 99.008458 
L 164.673466 99.008458 
L 163.151648 99.008458 
z
" style="fill:#3d85c6;fill-opacity:0.655;"/>
   </g>
   <g id="PolyCollection_132">
    <path clip-path="url(#p9ab57fd8d7)" d="M 163.151648 14.965714 
L 163.151648 99.008458 
L 164.673466 99.008458 
L 164.673466 14.965714 
L 164.673466 14.965714 
L 163.151648 14.965714 
z
" style="fill:#cc0000;fill-opacity:0.655;"/>
   </g>
   <g id="PolyCollection_133">
    <path clip-path="url(#p9ab57fd8d7)" d="M 164.673466 96.92576 
L 164.673466 170.28 
L 166.195284 170.28 
L 166.195284 96.92576 
L 166.195284 96.92576 
L 164.673466 96.92576 
z
" style="fill:#3d85c6;fill-opacity:0.665;"/>
   </g>
   <g id="PolyCollection_134">
    <path clip-path="url(#p9ab57fd8d7)" d="M 164.673466 14.965714 
L 164.673466 96.92576 
L 166.195284 96.92576 
L 166.195284 14.965714 
L 166.195284 14.965714 
L 164.673466 14.965714 
z
" style="fill:#cc0000;fill-opacity:0.665;"/>
   </g>
   <g id="PolyCollection_135">
    <path clip-path="url(#p9ab57fd8d7)" d="M 166.195284 82.992552 
L 166.195284 170.28 
L 167.717102 170.28 
L 167.717102 82.992552 
L 167.717102 82.992552 
L 166.195284 82.992552 
z
" style="fill:#3d85c6;fill-opacity:0.675;"/>
   </g>
   <g id="PolyCollection_136">
    <path clip-path="url(#p9ab57fd8d7)" d="M 166.195284 14.965714 
L 166.195284 82.992552 
L 167.717102 82.992552 
L 167.717102 14.965714 
L 167.717102 14.965714 
L 166.195284 14.965714 
z
" style="fill:#cc0000;fill-opacity:0.675;"/>
   </g>
   <g id="PolyCollection_137">
    <path clip-path="url(#p9ab57fd8d7)" d="M 167.717102 81.763151 
L 167.717102 170.28 
L 169.23892 170.28 
L 169.23892 81.763151 
L 169.23892 81.763151 
L 167.717102 81.763151 
z
" style="fill:#3d85c6;fill-opacity:0.685;"/>
   </g>
   <g id="PolyCollection_138">
    <path clip-path="url(#p9ab57fd8d7)" d="M 167.717102 14.965714 
L 167.717102 81.763151 
L 169.23892 81.763151 
L 169.23892 14.965714 
L 169.23892 14.965714 
L 167.717102 14.965714 
z
" style="fill:#cc0000;fill-opacity:0.685;"/>
   </g>
   <g id="PolyCollection_139">
    <path clip-path="url(#p9ab57fd8d7)" d="M 169.23892 71.590714 
L 169.23892 170.28 
L 170.760739 170.28 
L 170.760739 71.590714 
L 170.760739 71.590714 
L 169.23892 71.590714 
z
" style="fill:#3d85c6;fill-opacity:0.695;"/>
   </g>
   <g id="PolyCollection_140">
    <path clip-path="url(#p9ab57fd8d7)" d="M 169.23892 14.965714 
L 169.23892 71.590714 
L 170.760739 71.590714 
L 170.760739 14.965714 
L 170.760739 14.965714 
L 169.23892 14.965714 
z
" style="fill:#cc0000;fill-opacity:0.695;"/>
   </g>
   <g id="PolyCollection_141">
    <path clip-path="url(#p9ab57fd8d7)" d="M 170.760739 64.590523 
L 170.760739 170.28 
L 172.282557 170.28 
L 172.282557 64.590523 
L 172.282557 64.590523 
L 170.760739 64.590523 
z
" style="fill:#3d85c6;fill-opacity:0.705;"/>
   </g>
   <g id="PolyCollection_142">
    <path clip-path="url(#p9ab57fd8d7)" d="M 170.760739 14.965714 
L 170.760739 64.590523 
L 172.282557 64.590523 
L 172.282557 14.965714 
L 172.282557 14.965714 
L 170.760739 14.965714 
z
" style="fill:#cc0000;fill-opacity:0.705;"/>
   </g>
   <g id="PolyCollection_143">
    <path clip-path="url(#p9ab57fd8d7)" d="M 172.282557 54.2621 
L 172.282557 170.28 
L 173.804375 170.28 
L 173.804375 54.2621 
L 173.804375 54.2621 
L 172.282557 54.2621 
z
" style="fill:#3d85c6;fill-opacity:0.715;"/>
   </g>
   <g id="PolyCollection_144">
    <path clip-path="url(#p9ab57fd8d7)" d="M 172.282557 14.965714 
L 172.282557 54.2621 
L 173.804375 54.2621 
L 173.804375 14.965714 
L 173.804375 14.965714 
L 172.282557 14.965714 
z
" style="fill:#cc0000;fill-opacity:0.715;"/>
   </g>
   <g id="PolyCollection_145">
    <path clip-path="url(#p9ab57fd8d7)" d="M 173.804375 46.590795 
L 173.804375 170.28 
L 175.326193 170.28 
L 175.326193 46.590795 
L 175.326193 46.590795 
L 173.804375 46.590795 
z
" style="fill:#3d85c6;fill-opacity:0.725;"/>
   </g>
   <g id="PolyCollection_146">
    <path clip-path="url(#p9ab57fd8d7)" d="M 173.804375 14.965714 
L 173.804375 46.590795 
L 175.326193 46.590795 
L 175.326193 14.965714 
L 175.326193 14.965714 
L 173.804375 14.965714 
z
" style="fill:#cc0000;fill-opacity:0.725;"/>
   </g>
   <g id="PolyCollection_147">
    <path clip-path="url(#p9ab57fd8d7)" d="M 175.326193 45.530997 
L 175.326193 170.28 
L 176.848011 170.28 
L 176.848011 45.530997 
L 176.848011 45.530997 
L 175.326193 45.530997 
z
" style="fill:#3d85c6;fill-opacity:0.735;"/>
   </g>
   <g id="PolyCollection_148">
    <path clip-path="url(#p9ab57fd8d7)" d="M 175.326193 14.965714 
L 175.326193 45.530997 
L 176.848011 45.530997 
L 176.848011 14.965714 
L 176.848011 14.965714 
L 175.326193 14.965714 
z
" style="fill:#cc0000;fill-opacity:0.735;"/>
   </g>
   <g id="PolyCollection_149">
    <path clip-path="url(#p9ab57fd8d7)" d="M 176.848011 36.764211 
L 176.848011 170.28 
L 178.36983 170.28 
L 178.36983 36.764211 
L 178.36983 36.764211 
L 176.848011 36.764211 
z
" style="fill:#3d85c6;fill-opacity:0.745;"/>
   </g>
   <g id="PolyCollection_150">
    <path clip-path="url(#p9ab57fd8d7)" d="M 176.848011 14.965714 
L 176.848011 36.764211 
L 178.36983 36.764211 
L 178.36983 14.965714 
L 178.36983 14.965714 
L 176.848011 14.965714 
z
" style="fill:#cc0000;fill-opacity:0.745;"/>
   </g>
   <g id="PolyCollection_151">
    <path clip-path="url(#p9ab57fd8d7)" d="M 178.36983 34.799562 
L 178.36983 170.28 
L 179.891648 170.28 
L 179.891648 34.799562 
L 179.891648 34.799562 
L 178.36983 34.799562 
z
" style="fill:#3d85c6;fill-opacity:0.755;"/>
   </g>
   <g id="PolyCollection_152">
    <path clip-path="url(#p9ab57fd8d7)" d="M 178.36983 14.965714 
L 178.36983 34.799562 
L 179.891648 34.799562 
L 179.891648 14.965714 
L 179.891648 14.965714 
L 178.36983 14.965714 
z
" style="fill:#cc0000;fill-opacity:0.755;"/>
   </g>
   <g id="PolyCollection_153">
    <path clip-path="url(#p9ab57fd8d7)" d="M 179.891648 33.506167 
L 179.891648 170.28 
L 181.413466 170.28 
L 181.413466 33.506167 
L 181.413466 33.506167 
L 179.891648 33.506167 
z
" style="fill:#3d85c6;fill-opacity:0.765;"/>
   </g>
   <g id="PolyCollection_154">
    <path clip-path="url(#p9ab57fd8d7)" d="M 179.891648 14.965714 
L 179.891648 33.506167 
L 181.413466 33.506167 
L 181.413466 14.965714 
L 181.413466 14.965714 
L 179.891648 14.965714 
z
" style="fill:#cc0000;fill-opacity:0.765;"/>
   </g>
   <g id="PolyCollection_155">
    <path clip-path="url(#p9ab57fd8d7)" d="M 181.413466 29.244138 
L 181.413466 170.28 
L 182.935284 170.28 
L 182.935284 29.244138 
L 182.935284 29.244138 
L 181.413466 29.244138 
z
" style="fill:#3d85c6;fill-opacity:0.775;"/>
   </g>
   <g id="PolyCollection_156">
    <path clip-path="url(#p9ab57fd8d7)" d="M 181.413466 14.965714 
L 181.413466 29.244138 
L 182.935284 29.244138 
L 182.935284 14.965714 
L 182.935284 14.965714 
L 181.413466 14.965714 
z
" style="fill:#cc0000;fill-opacity:0.775;"/>
   </g>
   <g id="PolyCollection_157">
    <path clip-path="url(#p9ab57fd8d7)" d="M 182.935284 26.520237 
L 182.935284 170.28 
L 184.457102 170.28 
L 184.457102 26.520237 
L 184.457102 26.520237 
L 182.935284 26.520237 
z
" style="fill:#3d85c6;fill-opacity:0.785;"/>
   </g>
   <g id="PolyCollection_158">
    <path clip-path="url(#p9ab57fd8d7)" d="M 182.935284 14.965714 
L 182.935284 26.520237 
L 184.457102 26.520237 
L 184.457102 14.965714 
L 184.457102 14.965714 
L 182.935284 14.965714 
z
" style="fill:#cc0000;fill-opacity:0.785;"/>
   </g>
   <g id="PolyCollection_159">
    <path clip-path="url(#p9ab57fd8d7)" d="M 184.457102 23.409489 
L 184.457102 170.28 
L 185.97892 170.28 
L 185.97892 23.409489 
L 185.97892 23.409489 
L 184.457102 23.409489 
z
" style="fill:#3d85c6;fill-opacity:0.795;"/>
   </g>
   <g id="PolyCollection_160">
    <path clip-path="url(#p9ab57fd8d7)" d="M 184.457102 14.965714 
L 184.457102 23.409489 
L 185.97892 23.409489 
L 185.97892 14.965714 
L 185.97892 14.965714 
L 184.457102 14.965714 
z
" style="fill:#cc0000;fill-opacity:0.795;"/>
   </g>
   <g id="PolyCollection_161">
    <path clip-path="url(#p9ab57fd8d7)" d="M 185.97892 24.413616 
L 185.97892 170.28 
L 187.500739 170.28 
L 187.500739 24.413616 
L 187.500739 24.413616 
L 185.97892 24.413616 
z
" style="fill:#3d85c6;fill-opacity:0.805;"/>
   </g>
   <g id="PolyCollection_162">
    <path clip-path="url(#p9ab57fd8d7)" d="M 185.97892 14.965714 
L 185.97892 24.413616 
L 187.500739 24.413616 
L 187.500739 14.965714 
L 187.500739 14.965714 
L 185.97892 14.965714 
z
" style="fill:#cc0000;fill-opacity:0.805;"/>
   </g>
   <g id="PolyCollection_163">
    <path clip-path="url(#p9ab57fd8d7)" d="M 187.500739 20.486933 
L 187.500739 170.28 
L 189.022557 170.28 
L 189.022557 20.486933 
L 189.022557 20.486933 
L 187.500739 20.486933 
z
" style="fill:#3d85c6;fill-opacity:0.815;"/>
   </g>
   <g id="PolyCollection_164">
    <path clip-path="url(#p9ab57fd8d7)" d="M 187.500739 14.965714 
L 187.500739 20.486933 
L 189.022557 20.486933 
L 189.022557 14.965714 
L 189.022557 14.965714 
L 187.500739 14.965714 
z
" style="fill:#cc0000;fill-opacity:0.815;"/>
   </g>
   <g id="PolyCollection_165">
    <path clip-path="url(#p9ab57fd8d7)" d="M 189.022557 19.242484 
L 189.022557 170.28 
L 190.544375 170.28 
L 190.544375 19.242484 
L 190.544375 19.242484 
L 189.022557 19.242484 
z
" style="fill:#3d85c6;fill-opacity:0.825;"/>
   </g>
   <g id="PolyCollection_166">
    <path clip-path="url(#p9ab57fd8d7)" d="M 189.022557 14.965714 
L 189.022557 19.242484 
L 190.544375 19.242484 
L 190.544375 14.965714 
L 190.544375 14.965714 
L 189.022557 14.965714 
z
" style="fill:#cc0000;fill-opacity:0.825;"/>
   </g>
   <g id="PolyCollection_167">
    <path clip-path="url(#p9ab57fd8d7)" d="M 190.544375 19.08303 
L 190.544375 170.28 
L 192.066193 170.28 
L 192.066193 19.08303 
L 192.066193 19.08303 
L 190.544375 19.08303 
z
" style="fill:#3d85c6;fill-opacity:0.835;"/>
   </g>
   <g id="PolyCollection_168">
    <path clip-path="url(#p9ab57fd8d7)" d="M 190.544375 14.965714 
L 190.544375 19.08303 
L 192.066193 19.08303 
L 192.066193 14.965714 
L 192.066193 14.965714 
L 190.544375 14.965714 
z
" style="fill:#cc0000;fill-opacity:0.835;"/>
   </g>
   <g id="PolyCollection_169">
    <path clip-path="url(#p9ab57fd8d7)" d="M 192.066193 17.139324 
L 192.066193 170.28 
L 193.588011 170.28 
L 193.588011 17.139324 
L 193.588011 17.139324 
L 192.066193 17.139324 
z
" style="fill:#3d85c6;fill-opacity:0.845;"/>
   </g>
   <g id="PolyCollection_170">
    <path clip-path="url(#p9ab57fd8d7)" d="M 192.066193 14.965714 
L 192.066193 17.139324 
L 193.588011 17.139324 
L 193.588011 14.965714 
L 193.588011 14.965714 
L 192.066193 14.965714 
z
" style="fill:#cc0000;fill-opacity:0.845;"/>
   </g>
   <g id="PolyCollection_171">
    <path clip-path="url(#p9ab57fd8d7)" d="M 193.588011 16.394361 
L 193.588011 170.28 
L 195.10983 170.28 
L 195.10983 16.394361 
L 195.10983 16.394361 
L 193.588011 16.394361 
z
" style="fill:#3d85c6;fill-opacity:0.855;"/>
   </g>
   <g id="PolyCollection_172">
    <path clip-path="url(#p9ab57fd8d7)" d="M 193.588011 14.965714 
L 193.588011 16.394361 
L 195.10983 16.394361 
L 195.10983 14.965714 
L 195.10983 14.965714 
L 193.588011 14.965714 
z
" style="fill:#cc0000;fill-opacity:0.855;"/>
   </g>
   <g id="PolyCollection_173">
    <path clip-path="url(#p9ab57fd8d7)" d="M 195.10983 16.680841 
L 195.10983 170.28 
L 196.631648 170.28 
L 196.631648 16.680841 
L 196.631648 16.680841 
L 195.10983 16.680841 
z
" style="fill:#3d85c6;fill-opacity:0.865;"/>
   </g>
   <g id="PolyCollection_174">
    <path clip-path="url(#p9ab57fd8d7)" d="M 195.10983 14.965714 
L 195.10983 16.680841 
L 196.631648 16.680841 
L 196.631648 14.965714 
L 196.631648 14.965714 
L 195.10983 14.965714 
z
" style="fill:#cc0000;fill-opacity:0.865;"/>
   </g>
   <g id="PolyCollection_175">
    <path clip-path="url(#p9ab57fd8d7)" d="M 196.631648 16.24327 
L 196.631648 170.28 
L 198.153466 170.28 
L 198.153466 16.24327 
L 198.153466 16.24327 
L 196.631648 16.24327 
z
" style="fill:#3d85c6;fill-opacity:0.875;"/>
   </g>
   <g id="PolyCollection_176">
    <path clip-path="url(#p9ab57fd8d7)" d="M 196.631648 14.965714 
L 196.631648 16.24327 
L 198.153466 16.24327 
L 198.153466 14.965714 
L 198.153466 14.965714 
L 196.631648 14.965714 
z
" style="fill:#cc0000;fill-opacity:0.875;"/>
   </g>
   <g id="PolyCollection_177">
    <path clip-path="url(#p9ab57fd8d7)" d="M 198.153466 15.52981 
L 198.153466 170.28 
L 199.675284 170.28 
L 199.675284 15.52981 
L 199.675284 15.52981 
L 198.153466 15.52981 
z
" style="fill:#3d85c6;fill-opacity:0.885;"/>
   </g>
   <g id="PolyCollection_178">
    <path clip-path="url(#p9ab57fd8d7)" d="M 198.153466 14.965714 
L 198.153466 15.52981 
L 199.675284 15.52981 
L 199.675284 14.965714 
L 199.675284 14.965714 
L 198.153466 14.965714 
z
" style="fill:#cc0000;fill-opacity:0.885;"/>
   </g>
   <g id="PolyCollection_179">
    <path clip-path="url(#p9ab57fd8d7)" d="M 199.675284 15.148222 
L 199.675284 170.28 
L 201.197102 170.28 
L 201.197102 15.148222 
L 201.197102 15.148222 
L 199.675284 15.148222 
z
" style="fill:#3d85c6;fill-opacity:0.895;"/>
   </g>
   <g id="PolyCollection_180">
    <path clip-path="url(#p9ab57fd8d7)" d="M 199.675284 14.965714 
L 199.675284 15.148222 
L 201.197102 15.148222 
L 201.197102 14.965714 
L 201.197102 14.965714 
L 199.675284 14.965714 
z
" style="fill:#cc0000;fill-opacity:0.895;"/>
   </g>
   <g id="PolyCollection_181">
    <path clip-path="url(#p9ab57fd8d7)" d="M 201.197102 15.515824 
L 201.197102 170.28 
L 202.71892 170.28 
L 202.71892 15.515824 
L 202.71892 15.515824 
L 201.197102 15.515824 
z
" style="fill:#3d85c6;fill-opacity:0.905;"/>
   </g>
   <g id="PolyCollection_182">
    <path clip-path="url(#p9ab57fd8d7)" d="M 201.197102 14.965714 
L 201.197102 15.515824 
L 202.71892 15.515824 
L 202.71892 14.965714 
L 202.71892 14.965714 
L 201.197102 14.965714 
z
" style="fill:#cc0000;fill-opacity:0.905;"/>
   </g>
   <g id="PolyCollection_183">
    <path clip-path="url(#p9ab57fd8d7)" d="M 202.71892 14.965714 
L 202.71892 170.28 
L 204.240739 170.28 
L 204.240739 14.965714 
L 204.240739 14.965714 
L 202.71892 14.965714 
z
" style="fill:#3d85c6;fill-opacity:0.915;"/>
   </g>
   <g id="PolyCollection_184">
    <path clip-path="url(#p9ab57fd8d7)" d="M 202.71892 14.965714 
L 202.71892 14.965714 
L 204.240739 14.965714 
L 204.240739 14.965714 
L 204.240739 14.965714 
L 202.71892 14.965714 
z
" style="fill:#cc0000;fill-opacity:0.915;"/>
   </g>
   <g id="PolyCollection_185">
    <path clip-path="url(#p9ab57fd8d7)" d="M 204.240739 15.142208 
L 204.240739 170.28 
L 205.762557 170.28 
L 205.762557 15.142208 
L 205.762557 15.142208 
L 204.240739 15.142208 
z
" style="fill:#3d85c6;fill-opacity:0.925;"/>
   </g>
   <g id="PolyCollection_186">
    <path clip-path="url(#p9ab57fd8d7)" d="M 204.240739 14.965714 
L 204.240739 15.142208 
L 205.762557 15.142208 
L 205.762557 14.965714 
L 205.762557 14.965714 
L 204.240739 14.965714 
z
" style="fill:#cc0000;fill-opacity:0.925;"/>
   </g>
   <g id="PolyCollection_187">
    <path clip-path="url(#p9ab57fd8d7)" d="M 205.762557 15.149084 
L 205.762557 170.28 
L 207.284375 170.28 
L 207.284375 15.149084 
L 207.284375 15.149084 
L 205.762557 15.149084 
z
" style="fill:#3d85c6;fill-opacity:0.935;"/>
   </g>
   <g id="PolyCollection_188">
    <path clip-path="url(#p9ab57fd8d7)" d="M 205.762557 14.965714 
L 205.762557 15.149084 
L 207.284375 15.149084 
L 207.284375 14.965714 
L 207.284375 14.965714 
L 205.762557 14.965714 
z
" style="fill:#cc0000;fill-opacity:0.935;"/>
   </g>
   <g id="PolyCollection_189">
    <path clip-path="url(#p9ab57fd8d7)" d="M 207.284375 14.965714 
L 207.284375 170.28 
L 208.806193 170.28 
L 208.806193 14.965714 
L 208.806193 14.965714 
L 207.284375 14.965714 
z
" style="fill:#3d85c6;fill-opacity:0.945;"/>
   </g>
   <g id="PolyCollection_190">
    <path clip-path="url(#p9ab57fd8d7)" d="M 207.284375 14.965714 
L 207.284375 14.965714 
L 208.806193 14.965714 
L 208.806193 14.965714 
L 208.806193 14.965714 
L 207.284375 14.965714 
z
" style="fill:#cc0000;fill-opacity:0.945;"/>
   </g>
   <g id="PolyCollection_191">
    <path clip-path="url(#p9ab57fd8d7)" d="M 208.806193 14.965714 
L 208.806193 170.28 
L 210.328011 170.28 
L 210.328011 14.965714 
L 210.328011 14.965714 
L 208.806193 14.965714 
z
" style="fill:#3d85c6;fill-opacity:0.955;"/>
   </g>
   <g id="PolyCollection_192">
    <path clip-path="url(#p9ab57fd8d7)" d="M 208.806193 14.965714 
L 208.806193 14.965714 
L 210.328011 14.965714 
L 210.328011 14.965714 
L 210.328011 14.965714 
L 208.806193 14.965714 
z
" style="fill:#cc0000;fill-opacity:0.955;"/>
   </g>
   <g id="PolyCollection_193">
    <path clip-path="url(#p9ab57fd8d7)" d="M 210.328011 15.251744 
L 210.328011 170.28 
L 211.84983 170.28 
L 211.84983 15.251744 
L 211.84983 15.251744 
L 210.328011 15.251744 
z
" style="fill:#3d85c6;fill-opacity:0.965;"/>
   </g>
   <g id="PolyCollection_194">
    <path clip-path="url(#p9ab57fd8d7)" d="M 210.328011 14.965714 
L 210.328011 15.251744 
L 211.84983 15.251744 
L 211.84983 14.965714 
L 211.84983 14.965714 
L 210.328011 14.965714 
z
" style="fill:#cc0000;fill-opacity:0.965;"/>
   </g>
   <g id="PolyCollection_195">
    <path clip-path="url(#p9ab57fd8d7)" d="M 211.84983 14.965714 
L 211.84983 170.28 
L 213.371648 170.28 
L 213.371648 14.965714 
L 213.371648 14.965714 
L 211.84983 14.965714 
z
" style="fill:#3d85c6;fill-opacity:0.975;"/>
   </g>
   <g id="PolyCollection_196">
    <path clip-path="url(#p9ab57fd8d7)" d="M 211.84983 14.965714 
L 211.84983 14.965714 
L 213.371648 14.965714 
L 213.371648 14.965714 
L 213.371648 14.965714 
L 211.84983 14.965714 
z
" style="fill:#cc0000;fill-opacity:0.975;"/>
   </g>
   <g id="PolyCollection_197">
    <path clip-path="url(#p9ab57fd8d7)" d="M 213.371648 14.965714 
L 213.371648 170.28 
L 214.893466 170.28 
L 214.893466 14.965714 
L 214.893466 14.965714 
L 213.371648 14.965714 
z
" style="fill:#3d85c6;fill-opacity:0.985;"/>
   </g>
   <g id="PolyCollection_198">
    <path clip-path="url(#p9ab57fd8d7)" d="M 213.371648 14.965714 
L 213.371648 14.965714 
L 214.893466 14.965714 
L 214.893466 14.965714 
L 214.893466 14.965714 
L 213.371648 14.965714 
z
" style="fill:#cc0000;fill-opacity:0.985;"/>
   </g>
   <g id="PolyCollection_199">
    <path clip-path="url(#p9ab57fd8d7)" d="M 214.893466 14.965714 
L 214.893466 170.28 
L 216.415284 170.28 
L 216.415284 14.965714 
L 216.415284 14.965714 
L 214.893466 14.965714 
z
" style="fill:#3d85c6;fill-opacity:0.995;"/>
   </g>
   <g id="PolyCollection_200">
    <path clip-path="url(#p9ab57fd8d7)" d="M 214.893466 14.965714 
L 214.893466 14.965714 
L 216.415284 14.965714 
L 216.415284 14.965714 
L 216.415284 14.965714 
L 214.893466 14.965714 
z
" style="fill:#cc0000;fill-opacity:0.995;"/>
   </g>
   <g id="matplotlib.axis_1">
    <g id="xtick_1">
     <g id="line2d_1">
      <defs>
       <path d="M 0 0 
L 0 3.5 
" id="mb2df43c355" style="stroke:#000000;stroke-width:0.8;"/>
      </defs>
      <g>
       <use style="stroke:#000000;stroke-width:0.8;" x="64.233466" xlink:href="#mb2df43c355" y="170.28"/>
      </g>
     </g>
     <g id="text_1">
      <!-- 0.0 -->
      <defs>
       <path d="M 31.78125 66.40625 
Q 24.171875 66.40625 20.328125 58.90625 
Q 16.5 51.421875 16.5 36.375 
Q 16.5 21.390625 20.328125 13.890625 
Q 24.171875 6.390625 31.78125 6.390625 
Q 39.453125 6.390625 43.28125 13.890625 
Q 47.125 21.390625 47.125 36.375 
Q 47.125 51.421875 43.28125 58.90625 
Q 39.453125 66.40625 31.78125 66.40625 
z
M 31.78125 74.21875 
Q 44.046875 74.21875 50.515625 64.515625 
Q 56.984375 54.828125 56.984375 36.375 
Q 56.984375 17.96875 50.515625 8.265625 
Q 44.046875 -1.421875 31.78125 -1.421875 
Q 19.53125 -1.421875 13.0625 8.265625 
Q 6.59375 17.96875 6.59375 36.375 
Q 6.59375 54.828125 13.0625 64.515625 
Q 19.53125 74.21875 31.78125 74.21875 
z
" id="DejaVuSans-48"/>
       <path d="M 10.6875 12.40625 
L 21 12.40625 
L 21 0 
L 10.6875 0 
z
" id="DejaVuSans-46"/>
      </defs>
      <g transform="translate(53.101278 187.917813)scale(0.14 -0.14)">
       <use xlink:href="#DejaVuSans-48"/>
       <use x="63.623047" xlink:href="#DejaVuSans-46"/>
       <use x="95.410156" xlink:href="#DejaVuSans-48"/>
      </g>
     </g>
    </g>
    <g id="xtick_2">
     <g id="line2d_2">
      <g>
       <use style="stroke:#000000;stroke-width:0.8;" x="140.324375" xlink:href="#mb2df43c355" y="170.28"/>
      </g>
     </g>
     <g id="text_2">
      <!-- 0.5 -->
      <defs>
       <path d="M 10.796875 72.90625 
L 49.515625 72.90625 
L 49.515625 64.59375 
L 19.828125 64.59375 
L 19.828125 46.734375 
Q 21.96875 47.46875 24.109375 47.828125 
Q 26.265625 48.1875 28.421875 48.1875 
Q 40.625 48.1875 47.75 41.5 
Q 54.890625 34.8125 54.890625 23.390625 
Q 54.890625 11.625 47.5625 5.09375 
Q 40.234375 -1.421875 26.90625 -1.421875 
Q 22.3125 -1.421875 17.546875 -0.640625 
Q 12.796875 0.140625 7.71875 1.703125 
L 7.71875 11.625 
Q 12.109375 9.234375 16.796875 8.0625 
Q 21.484375 6.890625 26.703125 6.890625 
Q 35.15625 6.890625 40.078125 11.328125 
Q 45.015625 15.765625 45.015625 23.390625 
Q 45.015625 31 40.078125 35.4375 
Q 35.15625 39.890625 26.703125 39.890625 
Q 22.75 39.890625 18.8125 39.015625 
Q 14.890625 38.140625 10.796875 36.28125 
z
" id="DejaVuSans-53"/>
      </defs>
      <g transform="translate(129.192188 187.917813)scale(0.14 -0.14)">
       <use xlink:href="#DejaVuSans-48"/>
       <use x="63.623047" xlink:href="#DejaVuSans-46"/>
       <use x="95.410156" xlink:href="#DejaVuSans-53"/>
      </g>
     </g>
    </g>
    <g id="xtick_3">
     <g id="line2d_3">
      <g>
       <use style="stroke:#000000;stroke-width:0.8;" x="216.415284" xlink:href="#mb2df43c355" y="170.28"/>
      </g>
     </g>
     <g id="text_3">
      <!-- 1.0 -->
      <defs>
       <path d="M 12.40625 8.296875 
L 28.515625 8.296875 
L 28.515625 63.921875 
L 10.984375 60.40625 
L 10.984375 69.390625 
L 28.421875 72.90625 
L 38.28125 72.90625 
L 38.28125 8.296875 
L 54.390625 8.296875 
L 54.390625 0 
L 12.40625 0 
z
" id="DejaVuSans-49"/>
      </defs>
      <g transform="translate(205.283097 187.917813)scale(0.14 -0.14)">
       <use xlink:href="#DejaVuSans-49"/>
       <use x="63.623047" xlink:href="#DejaVuSans-46"/>
       <use x="95.410156" xlink:href="#DejaVuSans-48"/>
      </g>
     </g>
    </g>
    <g id="text_4">
     <!-- $C(X)$ -->
     <defs>
      <path d="M 69.484375 67.28125 
L 67.484375 56.890625 
Q 62.796875 61.625 57.546875 63.921875 
Q 52.296875 66.21875 46.1875 66.21875 
Q 37.84375 66.21875 31.515625 62.203125 
Q 25.203125 58.203125 20.609375 50 
Q 17.671875 44.734375 16.125 38.84375 
Q 14.59375 32.953125 14.59375 27 
Q 14.59375 17.046875 19.75 11.8125 
Q 24.90625 6.59375 34.71875 6.59375 
Q 41.5 6.59375 47.75 8.765625 
Q 54 10.9375 59.90625 15.28125 
L 57.625 3.609375 
Q 51.8125 1.125 45.875 -0.140625 
Q 39.9375 -1.421875 33.984375 -1.421875 
Q 19.96875 -1.421875 12.078125 6.1875 
Q 4.203125 13.8125 4.203125 27.390625 
Q 4.203125 36.078125 7.203125 44.46875 
Q 10.203125 52.875 15.828125 59.8125 
Q 21.78125 67.1875 29.421875 70.703125 
Q 37.0625 74.21875 47.21875 74.21875 
Q 53.46875 74.21875 59.0625 72.484375 
Q 64.65625 70.75 69.484375 67.28125 
z
" id="DejaVuSans-Oblique-67"/>
      <path d="M 31 75.875 
Q 24.46875 64.65625 21.28125 53.65625 
Q 18.109375 42.671875 18.109375 31.390625 
Q 18.109375 20.125 21.3125 9.0625 
Q 24.515625 -2 31 -13.1875 
L 23.1875 -13.1875 
Q 15.875 -1.703125 12.234375 9.375 
Q 8.59375 20.453125 8.59375 31.390625 
Q 8.59375 42.28125 12.203125 53.3125 
Q 15.828125 64.359375 23.1875 75.875 
z
" id="DejaVuSans-40"/>
      <path d="M 13.71875 72.90625 
L 23.6875 72.90625 
L 36.1875 46.578125 
L 58.796875 72.90625 
L 70.3125 72.90625 
L 40.28125 38.09375 
L 58.40625 0 
L 48.484375 0 
L 33.796875 30.71875 
L 7.171875 0 
L -4.296875 0 
L 29.78125 39.203125 
z
" id="DejaVuSans-Oblique-88"/>
      <path d="M 8.015625 75.875 
L 15.828125 75.875 
Q 23.140625 64.359375 26.78125 53.3125 
Q 30.421875 42.28125 30.421875 31.390625 
Q 30.421875 20.453125 26.78125 9.375 
Q 23.140625 -1.703125 15.828125 -13.1875 
L 8.015625 -13.1875 
Q 14.5 -2 17.703125 9.0625 
Q 20.90625 20.125 20.90625 31.390625 
Q 20.90625 42.671875 17.703125 53.65625 
Q 14.5 64.65625 8.015625 75.875 
z
" id="DejaVuSans-41"/>
     </defs>
     <g transform="translate(122.964375 206.986875)scale(0.16 -0.16)">
      <use transform="translate(0 0.125)" xlink:href="#DejaVuSans-Oblique-67"/>
      <use transform="translate(69.824219 0.125)" xlink:href="#DejaVuSans-40"/>
      <use transform="translate(108.837891 0.125)" xlink:href="#DejaVuSans-Oblique-88"/>
      <use transform="translate(177.34375 0.125)" xlink:href="#DejaVuSans-41"/>
     </g>
    </g>
   </g>
   <g id="matplotlib.axis_2">
    <g id="ytick_1">
     <g id="line2d_4">
      <defs>
       <path d="M 0 0 
L -3.5 0 
" id="m896c74dc0e" style="stroke:#000000;stroke-width:0.8;"/>
      </defs>
      <g>
       <use style="stroke:#000000;stroke-width:0.8;" x="56.624375" xlink:href="#m896c74dc0e" y="170.28"/>
      </g>
     </g>
     <g id="text_5">
      <!-- 0.0 -->
      <g transform="translate(27.36 175.598906)scale(0.14 -0.14)">
       <use xlink:href="#DejaVuSans-48"/>
       <use x="63.623047" xlink:href="#DejaVuSans-46"/>
       <use x="95.410156" xlink:href="#DejaVuSans-48"/>
      </g>
     </g>
    </g>
    <g id="ytick_2">
     <g id="line2d_5">
      <g>
       <use style="stroke:#000000;stroke-width:0.8;" x="56.624375" xlink:href="#m896c74dc0e" y="92.622857"/>
      </g>
     </g>
     <g id="text_6">
      <!-- 0.5 -->
      <g transform="translate(27.36 97.941763)scale(0.14 -0.14)">
       <use xlink:href="#DejaVuSans-48"/>
       <use x="63.623047" xlink:href="#DejaVuSans-46"/>
       <use x="95.410156" xlink:href="#DejaVuSans-53"/>
      </g>
     </g>
    </g>
    <g id="ytick_3">
     <g id="line2d_6">
      <g>
       <use style="stroke:#000000;stroke-width:0.8;" x="56.624375" xlink:href="#m896c74dc0e" y="14.965714"/>
      </g>
     </g>
     <g id="text_7">
      <!-- 1.0 -->
      <g transform="translate(27.36 20.284621)scale(0.14 -0.14)">
       <use xlink:href="#DejaVuSans-49"/>
       <use x="63.623047" xlink:href="#DejaVuSans-46"/>
       <use x="95.410156" xlink:href="#DejaVuSans-48"/>
      </g>
     </g>
    </g>
    <g id="text_8">
     <!-- $P(GT=1|C(X))$ -->
     <defs>
      <path d="M 16.890625 72.90625 
L 39.703125 72.90625 
Q 49.65625 72.90625 54.875 68.265625 
Q 60.109375 63.625 60.109375 54.6875 
Q 60.109375 42.671875 52.390625 35.984375 
Q 44.671875 29.296875 30.71875 29.296875 
L 18.3125 29.296875 
L 12.59375 0 
L 2.6875 0 
z
M 25.203125 64.796875 
L 19.921875 37.40625 
L 32.328125 37.40625 
Q 40.71875 37.40625 45.203125 41.703125 
Q 49.703125 46 49.703125 54 
Q 49.703125 59.125 46.65625 61.953125 
Q 43.609375 64.796875 38.09375 64.796875 
z
" id="DejaVuSans-Oblique-80"/>
      <path d="M 54.59375 10.890625 
L 58.40625 29.984375 
L 42.1875 29.984375 
L 43.703125 38.09375 
L 69.578125 38.09375 
L 63.28125 6 
Q 56.78125 2.4375 49.109375 0.5 
Q 41.453125 -1.421875 33.6875 -1.421875 
Q 19.96875 -1.421875 12.234375 6.1875 
Q 4.5 13.8125 4.5 27.390625 
Q 4.5 38.671875 9.203125 48.84375 
Q 13.921875 59.03125 22.21875 65.828125 
Q 27.4375 70.0625 33.640625 72.140625 
Q 39.84375 74.21875 47.40625 74.21875 
Q 54.25 74.21875 60.515625 72.484375 
Q 66.796875 70.75 72.515625 67.28125 
L 70.515625 56.78125 
Q 66.109375 61.375 60.203125 63.796875 
Q 54.296875 66.21875 47.609375 66.21875 
Q 39.84375 66.21875 33.9375 63.25 
Q 28.03125 60.296875 23.390625 54.109375 
Q 19.4375 48.828125 17.15625 41.671875 
Q 14.890625 34.515625 14.890625 27.09375 
Q 14.890625 16.890625 20.109375 11.734375 
Q 25.34375 6.59375 35.6875 6.59375 
Q 40.875 6.59375 45.703125 7.6875 
Q 50.53125 8.796875 54.59375 10.890625 
z
" id="DejaVuSans-Oblique-71"/>
      <path d="M 5.90625 72.90625 
L 67.578125 72.90625 
L 66.015625 64.59375 
L 39.984375 64.59375 
L 27.484375 0 
L 17.578125 0 
L 30.078125 64.59375 
L 4.296875 64.59375 
z
" id="DejaVuSans-Oblique-84"/>
      <path d="M 10.59375 45.40625 
L 73.1875 45.40625 
L 73.1875 37.203125 
L 10.59375 37.203125 
z
M 10.59375 25.484375 
L 73.1875 25.484375 
L 73.1875 17.1875 
L 10.59375 17.1875 
z
" id="DejaVuSans-61"/>
      <path d="M 21 76.421875 
L 21 -23.578125 
L 12.703125 -23.578125 
L 12.703125 76.421875 
z
" id="DejaVuSans-124"/>
     </defs>
     <g transform="translate(19.52 145.86)rotate(-90)scale(0.16 -0.16)">
      <use transform="translate(0 0.578125)" xlink:href="#DejaVuSans-Oblique-80"/>
      <use transform="translate(60.302734 0.578125)" xlink:href="#DejaVuSans-40"/>
      <use transform="translate(99.316406 0.578125)" xlink:href="#DejaVuSans-Oblique-71"/>
      <use transform="translate(176.806641 0.578125)" xlink:href="#DejaVuSans-Oblique-84"/>
      <use transform="translate(257.373047 0.578125)" xlink:href="#DejaVuSans-61"/>
      <use transform="translate(360.644531 0.578125)" xlink:href="#DejaVuSans-49"/>
      <use transform="translate(424.267578 0.578125)" xlink:href="#DejaVuSans-124"/>
      <use transform="translate(457.958984 0.578125)" xlink:href="#DejaVuSans-Oblique-67"/>
      <use transform="translate(527.783203 0.578125)" xlink:href="#DejaVuSans-40"/>
      <use transform="translate(566.796875 0.578125)" xlink:href="#DejaVuSans-Oblique-88"/>
      <use transform="translate(635.302734 0.578125)" xlink:href="#DejaVuSans-41"/>
      <use transform="translate(674.316406 0.578125)" xlink:href="#DejaVuSans-41"/>
     </g>
    </g>
   </g>
   <g id="line2d_7">
    <path clip-path="url(#p9ab57fd8d7)" d="M 64.994375 170.28 
L 66.516193 170.28 
L 68.038011 170.28 
L 69.55983 170.28 
L 71.081648 170.28 
L 72.603466 170.28 
L 74.125284 170.28 
L 75.647102 170.28 
L 77.16892 170.28 
L 78.690739 170.28 
L 80.212557 170.28 
L 81.734375 170.28 
L 83.256193 170.28 
L 84.778011 170.28 
L 86.29983 170.28 
L 87.821648 170.28 
L 89.343466 170.28 
L 90.865284 170.28 
L 92.387102 170.28 
L 93.90892 170.28 
L 95.430739 170.28 
L 96.952557 170.28 
L 98.474375 170.28 
L 99.996193 170.28 
L 101.518011 170.28 
L 103.03983 170.28 
L 104.561648 170.199941 
L 106.083466 170.28 
L 107.605284 170.28 
L 109.127102 170.28 
L 110.64892 170.28 
L 112.170739 170.28 
L 113.692557 170.28 
L 115.214375 170.18311 
L 116.736193 170.28 
L 118.258011 170.178355 
L 119.77983 170.058439 
L 121.301648 169.9384 
L 122.823466 170.051429 
L 124.345284 169.666594 
L 125.867102 169.744433 
L 127.38892 170.012217 
L 128.910739 168.851166 
L 130.432557 169.824087 
L 131.954375 169.621191 
L 133.476193 169.001693 
L 134.998011 167.286791 
L 136.51983 168.097598 
L 138.041648 167.859034 
L 139.563466 164.278394 
L 141.085284 165.452664 
L 142.607102 164.128939 
L 144.12892 160.952466 
L 145.650739 161.871265 
L 147.172557 158.60605 
L 148.694375 154.515016 
L 150.216193 156.019607 
L 151.738011 148.733509 
L 153.25983 146.285726 
L 154.781648 146.982857 
L 156.303466 134.411454 
L 157.825284 129.289063 
L 159.347102 130.330394 
L 160.86892 119.158966 
L 162.390739 110.805993 
L 163.912557 99.008458 
L 165.434375 96.92576 
L 166.956193 82.992552 
L 168.478011 81.763151 
L 169.99983 71.590714 
L 171.521648 64.590523 
L 173.043466 54.2621 
L 174.565284 46.590795 
L 176.087102 45.530997 
L 177.60892 36.764211 
L 179.130739 34.799562 
L 180.652557 33.506167 
L 182.174375 29.244138 
L 183.696193 26.520237 
L 185.218011 23.409489 
L 186.73983 24.413616 
L 188.261648 20.486933 
L 189.783466 19.242484 
L 191.305284 19.08303 
L 192.827102 17.139324 
L 194.34892 16.394361 
L 195.870739 16.680841 
L 197.392557 16.24327 
L 198.914375 15.52981 
L 200.436193 15.148222 
L 201.958011 15.515824 
L 203.47983 14.965714 
L 205.001648 15.142208 
L 206.523466 15.149084 
L 208.045284 14.965714 
L 209.567102 14.965714 
L 211.08892 15.251744 
L 212.610739 14.965714 
L 214.132557 14.965714 
L 215.654375 14.965714 
" style="fill:none;stroke:#000000;stroke-linecap:square;stroke-width:2;"/>
   </g>
   <g id="patch_3">
    <path d="M 56.624375 170.28 
L 56.624375 7.2 
" style="fill:none;stroke:#000000;stroke-linecap:square;stroke-linejoin:miter;stroke-width:0.8;"/>
   </g>
   <g id="patch_4">
    <path d="M 56.624375 170.28 
L 224.024375 170.28 
" style="fill:none;stroke:#000000;stroke-linecap:square;stroke-linejoin:miter;stroke-width:0.8;"/>
   </g>
  </g>
 </g>
 <defs>
  <clipPath id="p9ab57fd8d7">
   <rect height="163.08" width="167.4" x="56.624375" y="7.2"/>
  </clipPath>
 </defs>
</svg>
